<mxfile host="app.diagrams.net" modified="2020-11-11T01:52:45.743Z" agent="5.0 (X11)" etag="d7QR9qqRhUsfLFqZXDtS" version="13.9.2" type="github">
  <diagram id="Xy2mr8AWGQCi92rcEsp9" name="Page-1">
    <mxGraphModel dx="868" dy="487" grid="1" gridSize="10" guides="1" tooltips="1" connect="1" arrows="1" fold="1" page="1" pageScale="1" pageWidth="850" pageHeight="1100" math="0" shadow="0">
      <root>
        <mxCell id="0" />
        <mxCell id="1" parent="0" />
        <mxCell id="ueokan3URpYZCmvQA0W_-1" value="" style="rounded=1;whiteSpace=wrap;html=1;dashed=1;strokeColor=#E6E6E6;strokeWidth=3;" vertex="1" parent="1">
          <mxGeometry x="10" y="410" width="830" height="90" as="geometry" />
        </mxCell>
        <mxCell id="ueokan3URpYZCmvQA0W_-38" value="" style="rounded=1;whiteSpace=wrap;html=1;dashed=1;sketch=0;strokeWidth=3;strokeColor=none;fillColor=#B4D330;" vertex="1" parent="1">
          <mxGeometry x="30" y="420" width="460" height="70" as="geometry" />
        </mxCell>
        <mxCell id="ueokan3URpYZCmvQA0W_-7" value="" style="rounded=1;whiteSpace=wrap;html=1;dashed=1;strokeColor=#E6E6E6;strokeWidth=3;" vertex="1" parent="1">
          <mxGeometry x="10" y="310" width="830" height="90" as="geometry" />
        </mxCell>
        <mxCell id="ueokan3URpYZCmvQA0W_-37" value="" style="rounded=1;whiteSpace=wrap;html=1;dashed=1;sketch=0;strokeWidth=3;strokeColor=none;fillColor=#B4D330;" vertex="1" parent="1">
          <mxGeometry x="590" y="420" width="240" height="70" as="geometry" />
        </mxCell>
        <mxCell id="ueokan3URpYZCmvQA0W_-6" value="" style="rounded=1;whiteSpace=wrap;html=1;dashed=1;strokeColor=#E6E6E6;strokeWidth=3;" vertex="1" parent="1">
          <mxGeometry x="10" y="210" width="830" height="90" as="geometry" />
        </mxCell>
        <mxCell id="ueokan3URpYZCmvQA0W_-8" value="" style="rounded=1;whiteSpace=wrap;html=1;dashed=1;strokeColor=#E6E6E6;strokeWidth=3;" vertex="1" parent="1">
          <mxGeometry x="10" y="110" width="830" height="90" as="geometry" />
        </mxCell>
        <mxCell id="ueokan3URpYZCmvQA0W_-9" value="" style="rounded=1;whiteSpace=wrap;html=1;dashed=1;strokeColor=#E6E6E6;strokeWidth=3;" vertex="1" parent="1">
          <mxGeometry x="10" y="10" width="830" height="90" as="geometry" />
        </mxCell>
        <mxCell id="ueokan3URpYZCmvQA0W_-10" value="" style="rounded=1;whiteSpace=wrap;html=1;dashed=1;strokeColor=#E6E6E6;strokeWidth=3;fillColor=none;" vertex="1" parent="1">
          <mxGeometry x="720" y="110" width="120" height="390" as="geometry" />
        </mxCell>
        <mxCell id="ueokan3URpYZCmvQA0W_-12" value="" style="aspect=fixed;html=1;points=[];align=center;image;fontSize=12;image=img/lib/azure2/databases/SQL_Database.svg;dashed=1;strokeColor=#E6E6E6;strokeWidth=3;fillColor=none;" vertex="1" parent="1">
          <mxGeometry x="762.0799999999999" y="425.46" width="35.85" height="47.8" as="geometry" />
        </mxCell>
        <mxCell id="ueokan3URpYZCmvQA0W_-13" value="" style="aspect=fixed;html=1;points=[];align=center;image;fontSize=12;image=img/lib/azure2/general/Table.svg;dashed=1;strokeColor=#E6E6E6;strokeWidth=3;fillColor=none;" vertex="1" parent="1">
          <mxGeometry x="48.5" y="428.25000000000006" width="54" height="43.88" as="geometry" />
        </mxCell>
        <mxCell id="ueokan3URpYZCmvQA0W_-14" value="" style="aspect=fixed;html=1;points=[];align=center;image;fontSize=12;image=img/lib/azure2/general/Dashboard.svg;dashed=1;strokeColor=#E6E6E6;strokeWidth=3;fillColor=none;sketch=0;" vertex="1" parent="1">
          <mxGeometry x="153.5" y="128.53" width="58" height="40.94" as="geometry" />
        </mxCell>
        <mxCell id="ueokan3URpYZCmvQA0W_-15" value="" style="aspect=fixed;html=1;points=[];align=center;image;fontSize=12;image=img/lib/azure2/general/Dashboard.svg;dashed=1;strokeColor=#F08705;strokeWidth=3;fillColor=none;sketch=0;" vertex="1" parent="1">
          <mxGeometry x="396" y="126.66999999999999" width="58" height="40.94" as="geometry" />
        </mxCell>
        <mxCell id="ueokan3URpYZCmvQA0W_-16" value="" style="aspect=fixed;html=1;points=[];align=center;image;fontSize=12;image=img/lib/azure2/general/Dashboard.svg;dashed=1;strokeColor=#E6E6E6;strokeWidth=3;fillColor=none;sketch=0;" vertex="1" parent="1">
          <mxGeometry x="610" y="125" width="58" height="40.94" as="geometry" />
        </mxCell>
        <mxCell id="ueokan3URpYZCmvQA0W_-18" value="" style="aspect=fixed;html=1;points=[];align=center;image;fontSize=12;image=img/lib/azure2/preview/Web_Environment.svg;dashed=1;sketch=1;strokeColor=#E6E6E6;strokeWidth=3;fillColor=none;" vertex="1" parent="1">
          <mxGeometry x="170" y="228.31" width="54" height="55.69" as="geometry" />
        </mxCell>
        <mxCell id="ueokan3URpYZCmvQA0W_-20" value="" style="aspect=fixed;html=1;points=[];align=center;image;fontSize=12;image=img/lib/azure2/security/Key_Vaults.svg;dashed=1;sketch=1;strokeColor=#E6E6E6;strokeWidth=3;fillColor=none;" vertex="1" parent="1">
          <mxGeometry x="580" y="226" width="58" height="58" as="geometry" />
        </mxCell>
        <mxCell id="ueokan3URpYZCmvQA0W_-22" value="" style="aspect=fixed;html=1;points=[];align=center;image;fontSize=12;image=img/lib/mscae/Mobile_Engagement.svg;dashed=1;sketch=1;strokeColor=#E6E6E6;strokeWidth=3;fillColor=none;" vertex="1" parent="1">
          <mxGeometry x="354" y="25.740000000000002" width="24" height="35.29" as="geometry" />
        </mxCell>
        <mxCell id="ueokan3URpYZCmvQA0W_-23" value="" style="aspect=fixed;html=1;points=[];align=center;image;fontSize=12;image=img/lib/mscae/Storage_sync_service.svg;dashed=1;sketch=1;strokeColor=#E6E6E6;strokeWidth=3;fillColor=none;" vertex="1" parent="1">
          <mxGeometry x="755" y="226" width="50" height="50" as="geometry" />
        </mxCell>
        <mxCell id="ueokan3URpYZCmvQA0W_-24" value="" style="pointerEvents=1;shadow=0;dashed=0;html=1;strokeColor=none;fillColor=#505050;labelPosition=center;verticalLabelPosition=bottom;outlineConnect=0;verticalAlign=top;align=center;shape=mxgraph.office.clouds.office_365;sketch=0;" vertex="1" parent="1">
          <mxGeometry x="40" y="22.5" width="71" height="40" as="geometry" />
        </mxCell>
        <mxCell id="ueokan3URpYZCmvQA0W_-25" value="" style="aspect=fixed;perimeter=ellipsePerimeter;html=1;align=center;shadow=0;dashed=0;spacingTop=3;image;image=img/lib/active_directory/laptop_client.svg;sketch=0;strokeColor=#E6E6E6;strokeWidth=3;fillColor=none;" vertex="1" parent="1">
          <mxGeometry x="154" y="16.5" width="45" height="50" as="geometry" />
        </mxCell>
        <mxCell id="ueokan3URpYZCmvQA0W_-26" value="" style="aspect=fixed;perimeter=ellipsePerimeter;html=1;align=center;shadow=0;dashed=0;spacingTop=3;image;image=img/lib/active_directory/hard_disk.svg;sketch=0;strokeColor=#E6E6E6;strokeWidth=3;fillColor=none;" vertex="1" parent="1">
          <mxGeometry x="341" y="441.5" width="50" height="27" as="geometry" />
        </mxCell>
        <mxCell id="ueokan3URpYZCmvQA0W_-27" value="" style="aspect=fixed;perimeter=ellipsePerimeter;html=1;align=center;shadow=0;dashed=0;spacingTop=3;image;image=img/lib/active_directory/tablet_pc.svg;sketch=0;strokeColor=#E6E6E6;strokeWidth=3;fillColor=none;" vertex="1" parent="1">
          <mxGeometry x="256" y="20.1" width="34" height="46.58" as="geometry" />
        </mxCell>
        <mxCell id="ueokan3URpYZCmvQA0W_-28" value="" style="aspect=fixed;html=1;points=[];align=center;image;fontSize=12;image=img/lib/azure2/app_services/App_Service_Domains.svg;dashed=1;sketch=0;strokeColor=#E6E6E6;strokeWidth=3;fillColor=none;" vertex="1" parent="1">
          <mxGeometry x="450" y="19.3" width="58" height="46.4" as="geometry" />
        </mxCell>
        <mxCell id="ueokan3URpYZCmvQA0W_-29" value="" style="outlineConnect=0;fontColor=#232F3E;gradientColor=#945DF2;gradientDirection=north;fillColor=#5A30B5;strokeColor=#ffffff;dashed=0;verticalLabelPosition=bottom;verticalAlign=top;align=center;html=1;fontSize=12;fontStyle=0;aspect=fixed;shape=mxgraph.aws4.resourceIcon;resIcon=mxgraph.aws4.game_tech2;sketch=0;" vertex="1" parent="1">
          <mxGeometry x="562" y="20.1" width="48" height="48" as="geometry" />
        </mxCell>
        <mxCell id="ueokan3URpYZCmvQA0W_-30" value="" style="shape=image;html=1;verticalAlign=top;verticalLabelPosition=bottom;labelBackgroundColor=#ffffff;imageAspect=0;aspect=fixed;image=https://cdn2.iconfinder.com/data/icons/vivid/48/vr-128.png;dashed=1;sketch=0;strokeColor=#E6E6E6;strokeWidth=3;fillColor=none;" vertex="1" parent="1">
          <mxGeometry x="741.82" y="9.82" width="76.36" height="76.36" as="geometry" />
        </mxCell>
        <mxCell id="ueokan3URpYZCmvQA0W_-31" value="" style="outlineConnect=0;fontColor=#232F3E;gradientColor=#F34482;gradientDirection=north;fillColor=#BC1356;strokeColor=#ffffff;dashed=0;verticalLabelPosition=bottom;verticalAlign=top;align=center;html=1;fontSize=12;fontStyle=0;aspect=fixed;shape=mxgraph.aws4.resourceIcon;resIcon=mxgraph.aws4.ar_vr;sketch=0;" vertex="1" parent="1">
          <mxGeometry x="660" y="18.5" width="48" height="48" as="geometry" />
        </mxCell>
        <mxCell id="ueokan3URpYZCmvQA0W_-32" value="" style="shadow=0;dashed=0;html=1;strokeColor=none;fillColor=#4495D1;labelPosition=center;verticalLabelPosition=bottom;verticalAlign=top;align=center;outlineConnect=0;shape=mxgraph.veeam.portal_admin;sketch=0;" vertex="1" parent="1">
          <mxGeometry x="114" y="127" width="38.4" height="40" as="geometry" />
        </mxCell>
        <mxCell id="ueokan3URpYZCmvQA0W_-33" value="" style="pointerEvents=1;shadow=0;dashed=0;html=1;strokeColor=none;fillColor=#505050;labelPosition=center;verticalLabelPosition=bottom;verticalAlign=top;outlineConnect=0;align=center;shape=mxgraph.office.users.tenant_admin;sketch=0;" vertex="1" parent="1">
          <mxGeometry x="213.5" y="126.77000000000001" width="40" height="44.47" as="geometry" />
        </mxCell>
        <mxCell id="ueokan3URpYZCmvQA0W_-34" value="" style="verticalLabelPosition=bottom;html=1;verticalAlign=top;align=center;strokeColor=none;fillColor=#00BEF2;shape=mxgraph.azure.user;dashed=1;sketch=0;" vertex="1" parent="1">
          <mxGeometry x="355" y="129.13" width="34" height="36.81" as="geometry" />
        </mxCell>
        <mxCell id="ueokan3URpYZCmvQA0W_-35" value="" style="outlineConnect=0;fontColor=#232F3E;gradientColor=#4D72F3;gradientDirection=north;fillColor=#3334B9;strokeColor=#ffffff;dashed=0;verticalLabelPosition=bottom;verticalAlign=top;align=center;html=1;fontSize=12;fontStyle=0;aspect=fixed;shape=mxgraph.aws4.resourceIcon;resIcon=mxgraph.aws4.developer_tools;sketch=0;" vertex="1" parent="1">
          <mxGeometry x="562" y="124" width="41.18" height="41.18" as="geometry" />
        </mxCell>
        <mxCell id="ueokan3URpYZCmvQA0W_-36" value="" style="shadow=0;dashed=0;html=1;strokeColor=none;fillColor=#4495D1;labelPosition=center;verticalLabelPosition=bottom;verticalAlign=top;align=center;outlineConnect=0;shape=mxgraph.veeam.2d.report;sketch=0;" vertex="1" parent="1">
          <mxGeometry x="638" y="430.39" width="32" height="39.61" as="geometry" />
        </mxCell>
        <mxCell id="ueokan3URpYZCmvQA0W_-39" value="" style="aspect=fixed;perimeter=ellipsePerimeter;html=1;align=center;shadow=0;dashed=0;spacingTop=3;image;image=img/lib/active_directory/hard_disk.svg;sketch=0;strokeColor=#E6E6E6;strokeWidth=3;fillColor=none;" vertex="1" parent="1">
          <mxGeometry x="425" y="441.5" width="50" height="27" as="geometry" />
        </mxCell>
        <mxCell id="ueokan3URpYZCmvQA0W_-40" value="" style="aspect=fixed;html=1;points=[];align=center;image;fontSize=12;image=img/lib/azure2/general/Table.svg;dashed=1;strokeColor=#E6E6E6;strokeWidth=3;fillColor=none;" vertex="1" parent="1">
          <mxGeometry x="145" y="428.25000000000006" width="54" height="43.88" as="geometry" />
        </mxCell>
        <mxCell id="ueokan3URpYZCmvQA0W_-41" value="" style="aspect=fixed;html=1;points=[];align=center;image;fontSize=12;image=img/lib/azure2/general/Table.svg;dashed=1;strokeColor=#E6E6E6;strokeWidth=3;fillColor=none;" vertex="1" parent="1">
          <mxGeometry x="246" y="429.38000000000005" width="54" height="43.88" as="geometry" />
        </mxCell>
        <mxCell id="ueokan3URpYZCmvQA0W_-43" value="" style="aspect=fixed;html=1;points=[];align=center;image;fontSize=12;image=img/lib/mscae/VirtualMachineWindows.svg;dashed=1;sketch=0;strokeColor=#E6E6E6;strokeWidth=3;fillColor=#B4D330;" vertex="1" parent="1">
          <mxGeometry x="580" y="332" width="50" height="46" as="geometry" />
        </mxCell>
        <mxCell id="ueokan3URpYZCmvQA0W_-45" value="" style="shape=image;html=1;verticalAlign=top;verticalLabelPosition=bottom;labelBackgroundColor=#ffffff;imageAspect=0;aspect=fixed;image=https://cdn3.iconfinder.com/data/icons/social-7/500/Android_robot_social-128.png;dashed=1;sketch=0;strokeColor=#E6E6E6;strokeWidth=3;fillColor=#B4D330;" vertex="1" parent="1">
          <mxGeometry x="430.5" y="315.5" width="79" height="79" as="geometry" />
        </mxCell>
        <mxCell id="ueokan3URpYZCmvQA0W_-47" value="" style="shape=image;verticalLabelPosition=bottom;labelBackgroundColor=#ffffff;verticalAlign=top;aspect=fixed;imageAspect=0;image=data:image/png,iVBORw0KGgoAAAANSUhEUgAAARgAAAEYCAYAAACHjumMAAAACXBIWXMAAA7EAAAOxAGVKw4bAAAgAElEQVR42uy9eZgkV3Un+juRkZnVXd3qTUKITUgIs4pNLAZkFrFpBRlbYLCNh8ULmMXwxob55s37mOX5s59tzC5gZrwPMCDQCojdrCMQu8ASi0CWhGSh3ru6u5bMPO+PzIg459xzb0RWV1Vnd2V+X3dVRUbc+MWNGyfO+ju05+WnM4EAMAACgwFAbCk+w++K7dXWYnuxZ/Uti3Hk3hBnYHMuf2wE+3nnkFjscf7+1XEorzzcH2af8Eo1dlLzpeeWnOOgcFb72c8kYUFwDn97Nb8w90avG4snNqb33RTL5GLJQcXBVC6q+IGFeBgtQQaYJDgtQuxJ5alZPSr+8uVypVMEjxSKZC6NAjFGzgTICS5+Z2/yGCCi4Eo8weidRc6N3T/8naICddKwxM7kjjlcLNUoTOUmckb2FnIoBKdYJhlLXj3F1btKvss5EB2OkBGXxY5sDASH2CZ1GPbkIqM8H7uPEZuxoHQwFpfLSrgBRAAzV1c2mkhmq8eN5oIRjOkJUSnzQTQ6B5QOUf1PZiZIXIedlwnCQuWNcXTF8PfyaKYSC8AgJoM8ft/sXEyxTD6WvHgT+u93RLSC2Pep36EU/NjY8e1Us781BeS54jK9uv5wWxoXGr4rwnNQzbjUeD6PMhaqx0LRsSwWGnM9TbEcC1jySoEZSSw23gr1gmQNnNm5CDGWIyjVKZBwrpT210jDkMeWMIb7FNtJfFeodXL/cr+RYC80mHJPooj+x3pAObYEbs4DeVhEdyXxwnAVNJpQLPL8xXHQc06otqt1UZ7HmXOLJYVrimXiseQgIySIzQMmVqpnqZPzRJKRKOJJCB4EdX6zkkkoXVIwkb7K0lgaXS2TVtbMMye+tzeGU66L6o4Ee9rzUGAUxqxfDhQyEnd+grE486p+J+27q/+YqyAkcE2xHCtYcv2WCi14rdF45/QWrHc5nADMyQtp+illBdsHaey5O0Io7M8PNxyQG/w+aVg45Uh0MKif5Doel4VrimWisOShasCRAFTNa4zgqBgxHbvufFZLkrZRPOhcqGgcjavEHFx1gT6KxGoSAfTA7OQG49e9TSYJC2oxsvfd0C6tfproVhrLcp62KZajiSWn2GJMxn4MRNex4vuXqSZQZkOohQSNT0ndJY+rDnDihnCgeelAuRF4SSyx7WGOy6Ri4agIYutZ1i/IJsfEtnEa9RTLZGHJlB9DCiyj2JD0WXj+AGsaOT6TIrzOVPlVSj8MaaFFpP0JJM/n/a7Oz5UvSV4L1Ti/iV07Vfpn2LE3C4ex9Y0ob5hzfmXDGtuWCJOPxawpiUWtFQ+HN+9kxvFwTbEcU1jyMlHODGAFBZGIsVPERAo0keFq51JgOOYKVW/IoRAVOaQjFa3MKCSRv0HibS22F07j4XaRO0NV7L7YTt7EFrF/K5DJpBAW10MmE0UkHkpnqUr2oypjUl5/OKdhZtAkYZEJWaTWhl5PUImYRhgi3D/EMjJ/jQN7imXyseTa2ZdSd8KHjkfmSyU7KPRusJ/KVThLOGIVKscTs7ICvbxdr7BBW43+Tw4c1RzJiuSkmcEJLOWY7MeeY6lysbSoScMC9140tEA5vhO5wYYplmMJS5ZSqeAIFEbcD1hmfdaYIuSoU5TCQaEgcowyrYU5KiM7qh8lrjXAaNRDT2RxgMULInNwnaVpI7XGCcZi9/ewVOozhxjkz8R6YWMdyhSgKZbJx5JXerLMyJF7cjAKK/8h6QecE8GIUZiHKQyIcPDkG2cmxWtsmFnodWzGHp1T+KLZUSHJpMSH/s5IzohKdotkOxGX9UMkAugMJ5hFVe4JR4NdRx8LG+uJKbTHJV7P8Uy22JV8Ox6csPOnWCYaS14mjkhUwp8inb4xVSmVp6bPyAYdx9UvsuZVzIklxjTXUZo/VFpa6jrkg8k6icaBxH5KkBp7dF4Kq62G+7BnlchThOrcpGJh5+XAjtYpFjobk1UZsdwgrlUXEJximTgsecI9kQbNY0Q7OYKkViDVfJKSh4PtFLpbQiw8Jpa6nEIOXdvMNRe13HlZayw1a0YlcUVdYQ2TN8ZZD1MsE4Ml06+x5SdZ8dj7NS0qx9gYuHHR+jjnXC6W5c3T6szLCmKh5a0JXtF5mGKZdCyZdvcdyRJcTsZn3Vjc4FzUeHxuhP1IagbI+EliR9IRzuMEYOFxVzoFWIrvaNkvgymWScdS0jVomoMUYkr8TTX7jzM2kC4lsEHaGB0ONbwLNOZ3DeaAlvfwcpjLPIFYaOw7HC5gzXU47uqYYpl8LFnTg5dnQjVLTk+P3QyXr/McqRlGY1/jSpggYarfJGJZnt46vplct+cUyyRjyWAKJ91ECnb+YRSJsI5F1mOxk71vz8MmdqyPZz22HXd0gPViB8XCdrvj4GXn/PKcxXnZzAmrOYk81QnLyyvjImcuJwkLQ5/fwxK1uLkBJpbJnP75plgmH0se1CSQIGOCS4krtG6jPNcoA96+kgRJpq6UMXfW+c8uHqJa90zFK2qxUJBiTUZ5Ivu7xA+/coLNeaJqaox0LDJfk4JFERVRGksQ8faw2OMofj6mKZZjBUsGxAkQkBZetR6LolCOE4LQCpXApiP9Nm7iiRjPbey7tjnyt/29LuaUEr5cMz5NOBYkcNn1ZBek/ZsbYMEUyzGHJS8Z8QxfSJnbKmoFmTloY2Jfe8z24Q1rAUqaCeNG1OAZbvVWwTXOpvmGlETkZdZRhA6GAleYzi0L6ShIZkd6DlCLxU2GE30cxHzYzgaTi8URYgoLdEJ2cR7BNVL+bd5swUvHspryFMuxgiX3dHAWxQRsdGPNu0lu9bX93nVSF+oUk7WCXLczOWXmLEjI2TWXRuz7NoJCTuozk35gpW3hO9XVYNWNdSI3xgxkMZdRTmZDfzxpWIjChUwJtYndCAWpSnrXHAPC0pIplmMGS2bWbnBi9cARNwjwcG3eHsuJoJhpwkn1q1lshAMurdAUNAVdMEWdtjiMDLdvQ1uNU/6h2FzR5GLhhPkZ45YJ5DylM57YefPK80+xTD6WLJ3nWf3jpPUVY7+K76tH1T/rgtshlYAvijjqVYlPEiewc9QjwoEnR6cuMvxkRk5eFSYaCxr+rk08jZ4dtA1CF1MsxwyW3HZwszR2bF+Z8L2yTPDDULF91T6ag4ADNQpBtab6wyvxHJHi8GibpBeVbTwq+4zEtcpr9+j8zLGRaAyPWqqUTa3Y2GfS5FRmnrwfE4rFuwdyTr22KkWLGfHTp0yOYFH3aYrlWMBScfLa9iWykQ7Bj1VQhCA8aFuC0FSpLX8yZePufo4Td+Scqqg3E2OU3i7HEWyv0ZsDihtv3nxRk15VHDvvhGFpck9tRMKhArDjhuNE4oZTLMcEliw8IzsPcZwIO+kFoXHqao64P0fzU6YeqrEOTAfNqbaUx7nmYxZL3T11/YcNjqMjATLFcpSx5DrsC53l5nkDjSkUJL7Z9nF1nee8bC4mn9AqeJYoMIt0IzrPXEOYNWYzC1mbB/IYNT5TmBAY0xnMuMRh5I5sBC6Izk0QlkLJhZNfw4Z2z2z3khxdRnnD/RXQOk+xTDyWzM2QlXFM+c+TdqmSmVQ76Vj9omSvIlEqEHtJj/blJiwLTTPR1DWwikaRFZB13QvIXBf5c2ffGExm/icNS2zuCuFHXoSKzfuEw3XjUTOS7JSAKZZjCEumC05EdMK0A2FjMnHSdErtx44HOyxYsn5lHn0nw8qyNayfpRophKIGzEwq2uJc4+hhJ3tNxL4/iWIMUP58kBPJmzgsQbthOUZ4jqAEg2KxLoslHeGcYplcLHnpdS7VYlKRHhrXWeGaVtAmjzFXyBwjmmpo88AdEKFKZ/AG4wXZfjbSRdFT2bHYbCWlUpKD3f9dq7GUpsKZBCwm4hjOMcIoIMQaK9ZccH/JMe3I0ATTFMsxgiXzHKvsNCQjyTxOw55Dyhlom31JCZg0QbR5x0I1CyL10nSKYS2+F7+TiGQxcagSAiVxeJDUJjWqwgxRqmLFWsqUbkQvj+NA5TS4pDk0iVjKv1mrxxRRpSlsIUNCU+bIsUSIaFtTLMcCltzv9FYVDXGgRFBNlEGGfF2vqfFQCrZ7m+dsNCOWOhtZgejURdnukKMZsZnE4rFU1+ybGE7NjyhbsEqB9pPKGi92OzCxKsuImHUTgSUMbnpefNe3TumWpgEW0xjMDd1PsUwklrwqkCJjdMjCv3jD+TDAzarZgW6hIVWpSqKF5/BJBbSoIqPjUMR3SwFbn8pV47ADc9i0wRu1GSkPBVj0nJLxnpCZR0w0Fo9aMczHJivl5LkYiWvyrg9TLMcQlrzytwgNomx7Qdp0iYSdA/dOWbkrtRIKs3HL/b3nIhSh7J2PjZkliiclZubIOE5BZEA8JTOJ7XhO6F1mUXJsvspq1VCxUx1daEKxiCptlnPnzTNXkclhO2Cq1lyEL5iD+xqOO8Uy+Vhy60Fm1hEk18fn9FEKOzP63mVywERZkIgcajoEvZtKrPL5CUK3HPdTUqTpk4q8UOnbiEfOIpoTsfazeseVPlipVvFkY2GEbGEaZtnXXMtHTdFBQunmSHJ4fI1MsUwylly+5tgpw7T8Lr4KUpN7GxuvURMD8o+JqSdAs74LXM/fS4HbiuIRebONBXYiCgizvOPZd7JMNpbUeZ2xijUm15rtIp5M7uYplmMJSy5FD40IZtKfyIpvHL42bEmx84lWs/6pggL0sfu5KFvU6ejIykmTuGCnSBTK9GAnJJiIQ6vXBE8ulia3nM0f9mdti5rIdU2xHBNY8oLnhVmbRK7rplkHEbO/4UUjo4HI3tgR0prSacQsiJE8XIaBKzYhwj4lSwYcV98SzHrQDzKgm31QRE3zqlRluFFimzQsse41xvcTq/SgJmsnhmuK5ZjBkpehZ2Il9VyNgbxFTo4RFgEWUNR5+1KoJUlKz0JTcYSdJr3hGo0ngpHFdVKqylo0hk9I9CpixiFDsnyAUSO4JxKL87fAyXbVUei/j0cO64nLplgmH0tOjdvOcrzBk8wADl6uHGGgk1F5TR5FrAVdYb0Qc9xnwxQNxmnTjmBblQR4XUOTkg4jpfUVSXts7jNHnE1c5/2ZTCy6tVfCOCdH06IYDo5i8RXoKZZJxpJzoCk4dkpBOiSFCZnYpb0URWRkGIbN7xxJ/FGyg718HHkiNoQ6kQfEKWNgJ6U6YDguHaQcffBYZdCY0zHVhNK8cFxwcyYHS5nGwA0EUkKPTPELO/eZyYnLT7FMLJY8IAwnGfYVWgkJZWr0u+2dFDs/jYRMWN9SmGZV2legUXBxvJy6Sr2jMrhFZWiVPG3OpdNJ+ZHIc9mIjGBAhn/ZhMmL6wztWC6FLgX1P/I7o69OHBYqM7u9+FuyXSk5x1CszSkpXZgAh6xkimVSseTMTkoJQj+G559hOSiRF4hR4wTfMdcYTCakVn5P6pK05DBjMAf+9SDklvReOWE8s4Utx20ycuPNr6/EkrPP5GBhJdiibzMgyKcosRTbWPdG5ygvBztZzVMsk4wlU1oLhdkPwbKmOME3ywRk6zikKkpV7B8tkjLJc4qOgHgE3etjaXqdBr4gFvh5VLApr43dx7fELkrhKeldN9cQdDZg928i62idYCyCBkDSOZDAWA46Ko4l5/VEEVJzPSabjhZTLMcKllwWMLLM9CwjKqHGwRTq67JQUukMZAvxWJN7x/h+rZdbFPExwfVIFWnvJVExvPwN6FICcDRCw8YL72pZ5HnFtHYHFd1C1N/ECS/+5GEhXWUb2O3Wvei7/kOXWASLxE1TLMcKllGxI5dRmuC9zyHRHDtmDiFCD8BeqQArhYmjIYzQvImaM2xLBdio9f7xxb7J76NeeK2AymutSrrCo9PXg6TzbVKwNNmf4WGAWmvEMOHSKZbjCUum3uiUgFk0darZx3WaUjyyzCk3dp3zOjadZHJCErkdXDMu1xwfE4tyTjl2TlrGcpkQLLWSUKje3hrTmCz7WoOxp1iOCSw5EcWcLmlQTS50HD7cBkKGxphQanx+JyR/BDgbzRcdwcKYMCzRSAQlzt2Eq3kZD9MUy+RhyZkZ8bj4uAVHK/2hpAEV7q1DtSupSq72XFCWAZSB+72jjmU5QqaZROTIXcOY92uK5VjBUmkwMfuA6Cgv3/HEMpVZG7R2WJq8Ljh9eHbyaehe+GosfOzdGNz5k6OKZc3v5ardrymWo40lc30jq2GXH+E7lxti4zXAkhw34m+qnctWjs4TnovZP/kAuhe9FrR5+9HDssr3mtf4vkyxHD0seZVVXIWPPdJEt1uXadjlkkOJlHMa57VqWrqqVrDsxUGcdrUe1dsoGY8sFQFFuG7CMtGEqTJKV0qdv+Z2ZZu2oXvRa9B+7HlY+Ph7sPSNjwO9pTXGQk7oMMVYz+l3nUn2U1hMKjm5Y1K8wdgUy0RjySsPMqmUf3LbHJg2IORl4xOErJKbS8IjT6ywOVPRPkFyBZeYKOw+pwv8Rik85X66HqcgXQrSq2s9YeHfHCiOiQ5mrjh1kriJ0LrXA7HhpX+GztmX4PBH/hyDW75fi22lsITUDv7csGw708QKI9Nsh0PnepV65fMxx5IKp1gmE0smFQZ70lj1dG2DRqEskLPdewTCx9im/oSpQBSj1SKbPuRkKFPU+HJuQ6owjIHaJnTL8qCAWm3kD/5lbHrj/8bMb/5n0In3qbGeVwaLXywQofyqYxtNaUoujSk3cCdNsRwrWKre1MX7j8NWBuVmZWpUarPUwsmYK2UjJ3gcOE61b6DIh7Bj7a4tmbWtjSKzncoq8XBMuNpRDLPmQSBrYnD6WmtD7nkH3ae9GO1HnoOFT/8tFr/yYeDg/lXDwixbmqBswBcaaGILR1qPi3tTkoFZgizn9WV5yDTOKZZjBUteNUiTwqIQNnBaSBohIxseUFpKkqkEsGqbqxmVGc+xml6rmciLJz/NhbTIKh5CamB4UO1bgJSpU7msdL4RLSOUk227J2YueSPaj78QC9e8C70bPg8M+iuOpVwDrG8+1UQVmrQeD+9RjTZFzeZ9imUysWRhl1qqSumCKATpTsVMQQmU/V5/J8YiBN8F/xhlywSP25iFIRXhPh5lIca/B+k2J/58SHJkSmKIlm0SzHlobA7hIdwM+f3PxMbffzs2vvJdyO71wBXHwkWDOkKkzM2/p3X7yXspzzvuOFMsxw6W3DZfrEsStRJO1VTFumzYoBI7v0dNQa40EXi96rSLmGzUKdIkjmxEKd6117p3XJd33I9EtW+OZSXztjvIH/kMbHrok7Hw+X/C4qf/Brzv7uh9XA6WVCNPa5ZSozF0+MCLTlFK++Wa/aZYJg5LHtQW+I6QyKs2DGEFjhK7SGWnkRqXpVTyfHatUIVnSbpnu0iaayx7FngOGMSvPeik6NCfshG+zOnxlvMhIqCzAd1nvwLtxzwHC9e+D0tfuxo8f/CIsHDsreJFyTk9fZookcKNiQRSRZ7IUyzHIpacUPcKa2B8xY5LjEU03tNFTV/7FOGCi2AhqglnxfBrN7b7PQtWMFoJtSUhaFon3Q8bXvxmdH75Ysxf/Q70b/zKsrHQGOEmro0GOrLaZUtLnNKz8adYjgksOaIxFMTVkKTWkWLzbzJeoktBLQ6qUaVQM2a6HsP7jpL781hzWN+Tqmb2WzlaZ5yF2Ve/F0vfuhbzV78D/It/HXP+m871OHLSBgW44ZyPd54plsnDklcqEWlCaNkh3v09JhMospbJ6OypfaETfYLYMcViyg3O6UxFgDuqrlRhd9aHpmUWabPO9jDiuGYSEzred+Xf7S7aT3ge8oc/FYuf/Xssfv6fwAf36otpioUo7Egg9nXTBOy8lGkKZLbJKELDeUkkMU+xTB6WzO05KZ0Z5MR3ZM/nYGDWvasFbZ8+3n6PMD3d4vJ81uRI1sDDzK5dGuwTcGSwptEkQ7NJJv6irtVIMGaVeUjFHCai1YXAqFIIqFbwSAFEs1vRfe7rMPsnH0TncRcC7W4zLGS+t2sjoOC099yhI4XbLyJ8gXpY1LkxxXIMYckCshnx4AYFcjb7lTidXk9iPJChupSXwJGQE3QjNUFCXIVQE+RS6nfWvxPHptEIL09Iswr+Vxg4YpCSaTLDiPEApwNq7KZ8w0b2jHBq3esMbHjZX2DjK9+N1umPAShrjIWVkDbzQmSumTWFahPfnLkDms6xKn5hQ0E/xXJsYMkDE0SMThG/CDtp+zFvb/wvb3t9qbj+KcPU6XPUpRjFA3GcwKdZ3OuSnHwfky8g6kyi4m/7MzpOK0f7zKcif+BjsXjdlVj42LvAe+9CtE1mEMPz8jkpsTqdjoHszAvXzwucpipTLMcGlkzRyFD1r5RGpInAmUYSUCZhkflnroMlhaXdx/zO4qccX9H4Sa2hwEZsttv9/XHgXAMLM6645oo4m/00YuLRfuyMw/qcFJJqW83D/mwaTZKCxjuWZmbReeqLsOk/Xo7OOS8BNm4eJlcpgm9WFKmMcF5AprdDcC/JzGl8fL32yF8f5X2iKZZjCEvGStUXb2X5gKmBKPDXBF6a0QPJJI0fVoKLy0YiXHJ+qn1BIXjywm8UbNf7F4KS3XEqAURKqDKMyUN64phsRjIZU8jDyEqgVQ8wR80dqY2U1eGWSN1sl1pNVBBtOQkbfuM/YfYN/4D2I58BtPIKS0CjSspE1S8fuQbEvIj/g1ge+T57ZaTLtUL6RTHFcuxgCTJ5XbUJgifG664mm9MrfhXjryijNQzfwVGMYfhZSBRijo4ndQ6oorzAvLOFmaKtB6nOUuS0UuUwm9Vy0thrKk9LOvona57YNiMPhUVAbTHa1mQ71TARFt/n9z8Trd9/B5a++1ksfOxdGNx+k+gU4WXm+eFLf16KTgam1oudvCHFNcJmXmPq+RTLpGPJvZ6K8n8ysoDYhsCqZvGyVYiWQwzymq47xDXlW5hte5Owmqiq3q4quWVXOXL2EycyUR6LSWg/VmMwHSnL9g6yf56Ur443WYkj5qTDNrbN03KW86F2B+2zzkX+kCdi6UsfwvzH3wMc2ldeRLwLDkevQ7ZJAVXtb1C0xmHRXob0bfDHY1XeMcVybGDJVCuLovDP2GpBoRwc/4jjQ7HmitxfqlXyn1LPlB/HmBUUnluFiSlyHIRdKc8NH5ccm7xrRAyLePjJwWzOd7Q/RIRsdis6z/ldbP4vn0D7yb8GdDeE82TmrO6esKjWZ+h5qcjDSPvE7H0w63CK5djBksvVzU7jHbYmDJMVkJFQrh8D5ia9m+zYnAgXB313E5g8pSVxXkK8xRkjfR2l76WgpeDEcZPTIGBoam09GRt+58/QedKvYf6ad6H/o6+B+5oWgmP3Knl5VK4x/dNkYDCaDDbFcgxgyW1ibGVumMfYyx52TC9VmyPIq4hqzMQIE4507VgMhasGFKffjY3vYkKYpUiIHGf+VnNG2i1lU2KCOV6mBlOXF7PcDzODsgz5g56A2fufiaVvfmLY7eCuf9WpFByha+TI37azLSdcCKhZKzatY4plIrHkbPs7q/aiVGX7cazFaChpgv1G9l3pHWG4DlTtwg7riGRvey4Zujh0yqIqIWYRtglb4448Rjy6zlGaNDMH0MAk/D0+rjAjpsKkfMmBO4rGDklbn9Wq7dvZgPYTn4/8YU/Fwuf+Houf/0fg8JxmSrP3VMxXxa0MWO7A0mNWvizM/eEqx4m9im92KtunWCYKSxbGsOU/ETomiuR/mIhTLHXYyzlx8m9sbD7In6ECCzfIvzHXQk7YLsh3Cf034XjOud0cIlOV4PmMRuMNDu7H4s9/0oTH4uiYTifswMzFr8em//AR5GedC8q7ZY5UuTbUvLDOWbJ+O+katLlJZp6ZKGxxavwH1TmnWCYJC+19+ekN2CJqenWJAkE2pOB1xJC+pqYlKDUYp9Ke2GGbRTSkzIaUyuKPWLWJ66j0U8VvWuNoWWJgT2sztj7rt7Ht2b+D1gk7VtSvYrN9j9CGQu/7X8DCNe9E/5YbFG1nBICyd6t5aV6pW7eWGhOQTrGsKZbWm87a9ubSByNqfWRhE4uoCEyBcuVpHnFIeFmq5IwH8jUAlWAncldIpMgorUZwzY6kKKloGIWYpV9JnJPM+UlpMfrayLwliuuv7hVVXMJlJi+Jc+oC9gEDhw7P4/BNX8fBb38erdkt6JxyGihrrYljd8wDkJ18f3Qeex5o6z3Qv+PH4Pm5YM7UHBVin0hxLJdrxtxXkm9B6HupvpPrM/rdFMvRwtJ646OHAibqbPScOvVMw/G/KaEUpBhxUg4mccEyry9SMpFyH8WvWQkkx7Fl8JN3/kQ51ADAod5woP6B3Zj71mcw/5Nvo3PK6ci3nRywRDVNpJO/r7RDmDozaN3/Eeg89nygt4TBHT8e9tbm+HoKHIfe34isCW8/rhljiuWoYqE9Lz99Mo3+dfbpMbDr8CCI3FFnBlue9gJsv+iVQ0FjzJ6m2gmvtm+HGf1bf4CFK/8avRu/Ci67UU4/6/nTetNjhhqMtDZSyggQaWVAie8pst+YdJnUdD+ptiUUpGpccs9DjrmoNJQEhaDEYomRbTibChOp51Sp93uY/+l3ceDrHwe1u+iccjqo3WmU6RvTZKxW07TEIKkBESHbeg+0H3sBsns9EIN/+xlwYNfweomChoF2fgj+vAT3kRyfvsfcSk78YYplzbHQnleMnLwebRmTIoOLJ8jA171kIoi1KwLzhWvsD++J5vA8zI6NktAH3YA/HKcWpXHK+qYyXMgJKarH6Q0YOw8P4hBo2LJk5oxHYcfzX4fZh5/dSELb2iaOlCUsR8NJHcdze7D4xQ9i8XP/gMH+neaWsnaIKQ173H5RTfZn1ZRsimXtsLTe9Ohtb9bM11RjtHn71Ud3BP1VYr+Y06KJk6jO2UENMHoCjhL4Gut7tdsHAA71IyyBgqirt/tOzF1/LRbv/ClmTn0IWrNbamFCXMUAACAASURBVDWMmLYyji9nnEJKAMi6G9F64FloP+pZwPxBDO748SjaVDefK/0QxcbkKZY1wFKGqWU4uBqaTAFknX/UJKDBNh2J/86qISUHxzahJhdpQ8H1AF7icH04XCfPxXvyhiYklS1YvVC/Pc8SA7vm+2WzuiZmYza7BdvOezm2PfslyDaeEJBOyUzfJlm/lsDK+m4sY14dLUS576CP/s3fxvxH/wL9n34H3O9V80K0Yrk/zR4rnWat7tEUy4pjob2veMBx4OQdvw3rxF0BM+aWGId7jAHiXO7eVXbu/UCc+Ouvx+yjno6sMzO517g0j8XrrsLiJ9+HwV23HNerYIplZCK98dHb3pymBz+a8me881sN5mhiWc6n0yLM5IQBM/qSpph0crRkdmcA/f27MfeNT2Hx1hvRPvlU5FvvMZkSJsvRut/D0D7rPKCVD/NnFhdMMcVarClE1/sUy8piCTQYbnBaqpGMqeaIVGNeNHnEQxPGGjx+GkATKV9nikX8r9G/m3wX7MuMxQEwtzTA0mDMZ3jjZmx56guw4+JXI5vd4ppIMe7eFMlVypySY8VMKnssmDH4+Q8xf/U70PvOZ8A8SN4vTqwnTngIuMZrEFuTUywrg0UImAaN19yGKCkY3iMlo0h1fWrrRISzD3uZdmOOkZzqOpwxLOONWxRxHu4PTacBI94zzZnufPsp2PFrf4QTnnghqLOhsXN2OabduOMq4cQD9G78KuYv+3MMfv4jgAdYm0+qbPgoGTHHIZbWmx69/c0qd97L87eNy5QMociiNznFQKS5G4XN1oCw9zQ30JGKsgUvxZcpYfWYBJdU47ikMNJJASwfaqehWXgpJHpIDyM+bSLMtIb79pxsSlXyIOTqYH4OB7/1GRy+6Xq073E/tHfcC5Rlq6NcNxQwUhiVP7MMrXucis4TfxW0aQv6d/4UOHwgQtYj+TkSqqb38nOpBwShEiPssx5TBaZYGmMpNZg6Rs/Yu9dVpdhpphh5oXND/aWGNkZ/z2HP7mA/bp7ot1wH2jjf1RaF8jBXZq43wEJ/TAHQ2YATnvw8bL/w99G55/0nRoPxLrK/83YsfvpvsPjVjwALh8aaT0TuaaP74Ox0JPd2iiXig5l+JvvDzFgYmU09TiiWjo6XbzsZW5/zUmx71m+BuhuPmslUF+LmQR/9W27AwpVvRe/Gr66h2TT9rLh2u/flD+DanvFNWOiaiLhxztHEg+RsD1wwdcc0IWevU7ki1xLF0tT1FMHFI9Kfwz3GwaVhWDvpn5HHE6Fz3wfhpBf8CWbPPBuUt4+qDyZ6LDO4t4il73wGC1e9bVh6wNx47pt+18jVcITrYD1jKQVMQE2JhE+XHZ9v5CTKhGP/d/kAVjSYQzsnaC6vJtDyZza0ZdzwT9VThpKN7BvaNOPYWCkBhzgW5qHzd26JMd8fOYLNfmTvbel9a2HTY5+NHRe/Gt37PRhEGSbxw8zgwwew+Nm/x+I//xN4/65o1qfb5D0eqlMLsEwsS2dbxp3rUywuFtpTmEjs+FKTa11TLKXOh5p5qJMITcLHfAT7xSRGXbCmJpBTL9PGHDO6npixNAprL44b1t60FVvPeTG2nfsy5Ft2LEsArJgPpuaYwZ03Y+Ha92HpGx8DLy3488ImhhBdd1Weup87HrkPrOMFyXs0xWJMpLGMq8RTM85xXCdgIpKvVjds4K4OmoqtpZu34RyNhWSoycwtiUS9hp/2Kadjx8WvxuYnnA/KO6vinzkSAVMe21tC/yffxPwVb0H/5m/Vv8Wjc7vcjKlxz7O+sbhRpCbPh6amXOkVCFXg51dBaxOJRbYhuY6L2LXUucnTVxp8q06ZODJV4C2/WgaWAQ99M4d6DDZUzkkoWQsbHvx4nPTCP8bM6Y9YNTa9leiGwIvzWLruCsx//FLwrp8ve5GVM8rLCLWsmLl8/GIZMdrJ0kZJkT9k2+fCOQKHrgFkUjrYKB+a0bzoUlAw+UvpVvKTU/VIqKpxLmgpWT2cVWoIleesIFS4y+sbOXao7FxYYSEQmFh3Z6QwWVqphLakXbbbpcpHVLmJuCIuL/GO5r8oDShmkzA2FiKgkxVlB8P8GUqEm8oUGmb0dt6O/V+5HP39u9G99xnINm5emWiCceqmiirtMe6nlaN16sPRefyFABH6d94MXlpQRSK+WUBinvR6Ga4J0ZnUu0fF9tGCJHOPys4cRFMsBNDeV5zOzbwOTfSjOjupiX0Uc4M3wUSGxLupvkhjeFeb2zn1WFZT5618douDodkkyw6UYBcOdtkLKj/x3th+3stxwlMvQTYze0TCxYse1QmYWiEjPv1b/wUL17wTvRv+GegvNlynFJC+N7f1V0TsHvdYwjB1PbNC2hO8nLFSodsmIXMpgK3XO+YvSrlyEtdno1pBlEscE5gCdVUXMN+vIJYBM+Z7jLneMNrEDdVdogwzp5+JEy/5v7Dx4WevmoDxhMzYBFm9RfR+8CXMX/lWDG6/yZ+XoKGf6Pxg1lbyHsXeqanIzTrE4kaRovKEIxnuiIfU62RKk+e6Tnap730irkauqzq5WBeZC1zMklwvYcKOG2FaNhYAAwz9M4d7Y9bG5m1sfuy5OOlFb0K+45SxWPBSrHpNijHrBE+AZfEwFr/wAcxf/Y5htwNv7bDpYMPxjHiMEbmBeV5ADd6rxzGWzGsoy+p/Nm5EDiiobHtaDsbQb11vdI48hOzsw+I/Fv9711F+73RUlOOzc73DRWvOwPHZ4qj7VM8Lm216dsVfjJXFQkCLCJvbGbZ3M3QzH5uHk1o5qN0BD3qNBMo4XQ+skEgx8zXZj5cWhqRWrVZwJzi6JU4mpu6RSZKy94gT9389YslJFvGxjDfEoh+21yv5YS630IpqzDivIRriegeH+k7p6PX0BNcrS2k/kfeWZsnEF4/RkHScJa+5xomyCljaGWFrN1NlB64KSYSNv/RY7Hj+a7HxoU8EKGukvdQJgSYRpuL34nyxv0ssvaVh5u8nLsXgthsB9vwIRoV3IojF2qGkv8vYFeIZ8r+Dv4aPcyx5GdEoblZpaoxiKjIKApjsWRk1gWBDEogJQYTEtREIweNR9qIuM2yrSMxwcUnPdnEOcR0iwZcFgbkcB1z15pXPbLXIhapYBH2NLclUfQc2an/hRVVRJGnjkvLXWNV0dbEMI02d1tBkmhuVHRTz1t5+yjA35knPRWtmVlWHxzSJ5QoWe0yTrgkSS//WH2D+8regd9NXgbJlSrH+yE9cpWpe2CxhtRZt5WwRc6Vwvah1i7Didr1hyVn06mAR/YDxtZDnJYowEZRCiLRGAiLBSG6NPLOv47xgw8JQ4iV2HTdMwuiRWCgcU3m6STARy26PZbCOgx4nDKe3CgmuYJIeeuie28545VytARYiYGM+pIWYW2IstLo44ZwXY8dFf4DWlhOrB7mBs3U1E/S8c/P+u7Hwifdh8Uv/G7x4WDMgk42MOO9uW/VPoR6tEpICBdrco6pFaLDPesSSEzueXLmcZE5H6c3xrArjHSr3s14i0+/WmlHlW10G603Sj3ob69kh2IdBj0WGq4Gsl8rLaLQy1ZIgBz18i9OKtrWCG4esqSnGI0m+7JmIq4il1e5gxyOehM7zXo/81IclCcO9CFAqQrQcEyn1ff/QAez/yuU49LFLseHAL5CJ/CB/XgASXvdSjjs1bOr96Nyj5lnjUyy5Jp0MXbNkk2HZhsC4yqNg1gk5QnAQO25tdhxQXJ2XJQbH+cQsMEuzQXUp0Pu5HjEIYWgEHgf7FjdEzgmL7AGTGMdO+ydr/TKrt0MVWuS1wUKE1r0fhO75r0T70c8Gtbu1WknKXBn3mLE0oEEfc9//CnZd/jbM//jbYAYOZcBsTtiQA5lzf1nOE3EVZmVW81KY3SoNwB2PhRLpu0zjx64vLDmbtoPK9+z4ZdmJiXphKw4WsQ6F11E6sMewCUNAh1j/Nscn7rRcIi+Ml8oJEd5zqeiwaypWfi2VdWuPS/itm6QsHhkWAjaegJln/Dt0nv5byDZvx1p+xtVyFm7/MXZd/nbMfesz4IX58gU6GAAHRqH3Te0M3ZZ4uTo+BqVheUl/MpM7kpfFDfKqOBIaXk9YcumQYA5RsjVh7ArmBrEQjisOyf1ZHxOr6ObIU8qpgA0nvuf4jXChc+wSqHK6ceI4bi5QVgQLAMo7yB/1LMw897XI7nnaUaFraCJcmBn9ub3Yc+3fYO+n/xGDg/uiD9PSANi7OEA3AzZ1MuRixzDoSuV61z+hdUduFNsN71Hi3q4nLDl5WkisQ2yDbLcyvCz8CF7GYFMuzICnxkZMIhqP9J9647uYEGYpEiLHmb/VnFFIy2n7XNv92TmXXS0rgoUytE59OGae90fIH3q2y9O7EsWIK/EZzB/Cgeuvxa7L34Glu26JF3DoTAssDIDF+QE2dwgbW5TMuHSJlZq0g4hkZZLNnh2DL/54xJKzGbHwgZQuR2Lzxq/v8RjsR6LYURQ+WqelCm+zw9jCwh87Wk0sHQzWphLhWoBK/4TFXhRelr24mQNoYNHlkn1cbHNODKuG9ZGzY3cyV8VBKrvySLEQQNvvhe4zX4rO2ZcAo9qiaG/pMTr5LaevdTITlxmHf3g9dl3+dhy68TqgP0i2j/H45jfmhG6rKG4VHbMIJl9Ia8Glr9+uFRals171nr1H0EW+0lewnrDkiBD5K8ci/CrmoMCBENoYsE5h1LS6JV/FVzgTxX5kw9j2WnQrVxXMokT4nWK5kJ5JwiIHIzZGaMSk9j0SLJR30D37Beg8+xXITrwPJu0jhUtv58+x64p3Yv9112Bw+KB7p2PChgiYaRFm2zRUzclZx9Z9buaSKUxl0PfICHTPf0bS5enla68fLDklfSLyYeSI75OVnhpqXqy6/Vgjzt+fkPa9piqs4v4ufUkeXkpcZ81DAsO/p9RMijh9mnpcloml1ULrjMdh5tf+GK37nwnKWsvSNlbK1+KFsovv+4fnsPcz/4Q9H/8f6O/fpXOFEhzGxZ9tAjZ3CJ2MgvecXquhj5HIPqFc61BsRjNWM846wJKXEo6dkHaZLVs4e9jNMmXwiE+FdAqHjUKpKFJlCliVixOk3bKoUfdRDQWTVZ3KzN9CkJGOMFHJ28Kuo0yl+QA+lw3bzObKLmISuZFs0n3U+CJUT1gGFkJ28mnonv8qtB93PpB3kqbMOIWLR6qhlCZ48XNpEXPf+wJ2fvivsHj7j/z1nqiGb43MoY052ZSnSLGo6Zxlki7JWWMmJUtktHKUWyX+3frCkrNhYItGYoyBxXLBkCleTDiTOBXqId8tHYRguSY0RDLZxPgnyC+a9AwVZgcXmWOV6WdyitgWgbFRXfU4ySLShlho41Z0nvIb6D7rZaBR2NnTGo7UhzKOYPKrqRnzP70Bu698N+a+8zlwv5dWP822DMCGnDCbE7IsESFhOKo9R+4R6zUSvUeVlz64RxT5bp1iyVOhLndbk31qwsO1Y4+73VhfzA3xj4mLueG1+TmETTTMZWOhVo78kc9A98JXo3XfB1cGW4JvZSU1k3E+/f27sPuqS7Hvi5dhcHB/2qS17ykCOhmwqZ2hnUXWR8M1yjzG8an9uME+6xRLmSpANlEm4Q0ghAl30rwKvvez4oOs5fgbULfEqd1PUmw616I65bLI/KWw9Q6bsF+gHnLkZWtCfaqmS9JfBmFBUu5o1GAhypCd8gDM/PqfIH/orwCtvJHGEWOUS2klR2JKMTN4cR77vnIFdl3xTvR23aHnJyiB0OF2oqE5tLk9jA6pe2SOlXPLQYifApcARQi+gntk1xQZZXmKJcCSS7tJfSONr4QqVhjLrDzW5kmAMcOInIhSPDBfOfwiFFGsi7y4qFA2hVbsJl2xLngkm2RdXacsmmTpX3HIkZVr3I3U2XHkd+S8jDiY82zrPdB5xkvQfcbvAO2ZZWkfdaxyKY2lqcDh3hIO3fg17PzQX+LwT78bcrHbftuGcaAFYGN76GchsvdQF9sFWefynhl7y4YvbKv14B45URQduZliCaJIYfKM9rAyez4TaqD2B04cBDwzjIh+sYyoSq0pR82PDQQeR4Sgf61cO7aHpwmn50gMdmfQftyF6J73B8jucWrygbcCJMYoV6f1eNpPSrgU+yz+/MfYfdWlOPC1j2OwtOhSDcVuVYYq7NyiSHFso5gf+VngbJwJbF8Q48QTp1i8Ty6L4cipmSE3vY4jjn1qECLzSSBtONuGpW1RAAdYwoZROsWNncRhGw73zwukQ+TsTf+I24UiIbxkcz03VD7UkFpnPA4zz3sdWg98HJC1kuxvsYzc2LYUGbc3VuwcRXr/7k/8DfZ97v3oy26M1gT3fP0jP8tsO0Mnqwuz8piPFfndSQGnYHBsQ3CKxQqYkrYAIecHBf830Qko+VvsdzLbyUUR46FjgT9+Pf7xzfZvdsWxB5mSsxB+F2pztP0UdC98NTqPvwjobEgKlrrf66I9TY6LVU1zbxEHvn4tdl72FizddSu8FjPhi6e639nIzzLTotUtVwjwk9q+pp/jGEvOzEjTg699Ytbyzs+CpsFUha85lhWL04A2bEbn7EvQPf8PQJu2r1pE6Ig/gz4O3/wd7Lrsr3HoX64DeBDtPw7rBAcjG7HrbWqTYv1b/nu7zjT11ztZf9eK6BDrF0tuJRW7Q9ez1iO+jpKqWvMLT/XfZlfHGafxZbPe1pT0mozbm5oSHh9q5cgf9hR0L/xDtO7/iFpyJ6tNeMz8Mdb+mL8mts1iWLr7duy++lLs//IV4MXD9mUY/E1GC5ppDcPOeUa1aypWn4fEmvO1TEqs4fTamWJpjiW3sCjSkISchigUcVZSpNSaAoIXdtrbxx75tGlU2fRcdqIDuIGYkddNjpiKiwIyOO25SDLnue41cv9unXIGus99LdqPOAfUmak1T8YlbmpiXjUZp394Dvs+9wHsufZv0dt9Z6O+UnKK8gzYNCpKjNFypsxQqnff15Ctk7hHHDXHp1iWjyX3X9lGQARkJFzTBJLDxJiYaLV5yDE1qDY0U4WqqWkzyLomj27TlwZgvXbY7Nu6MkGGZrei84zfQfecl4Bmt9RrXUeJVoF7Szj43S9g52VvwcJtPxwyPlGEFsARzRkBm9pDkyiLNd3hyNHkMJBF1wchqv6aYWqpRKZYloWlrKbm4q1PZN7pEhMpmWB5ZMqcmrL+UbuJSx1BHFDKFzIM50RaL6Aw+sPB2KhybEjuR2HzKBb7e5NurjlW8Z1qRq9sBPIftnL4badg9g3/gOzk+zcWGmstXHjQx8JtP8Suj7wNc9/+LDDoqzyWOjgZARtGYeeMjMlJCNaWr/OR+5pmlXZFybnW9lr8/k+xHDmW3I9iNFeFKPFcUeJ5qzsX1fxMYqYG+63Qs0kr9B1t3IzWPU9b3oO/ypoMM6O359+w59q/w77PfwCDQwdcysWUT6o7Cju3M0rO/RHNZ7FDq438zKeBFw6hf+NXmo1Jq4RlOWMeR1jyJKNcE9aqurwwpDyZDbyfdV6poDe16cpQd0wTcnbUuIaifbIjWBL0A8sScqsoXAaL89j/5cux++r3YOkXt8JL+NbdCvTmPANmi7BzkSnNPptg7Rqqm3sCsvs+FDMXvhr5mU/F4Q/+V/RvTHtCVw1Lned1nWDJg+1OL9qY26P0dyQAMPzxAvVMVHeS6JrGMW2j2IdUx7GwzL9O6JU8PCMfjn147M0bw6tG9ek/cZfSCn/GEkLMYB7g8E3X4+4P/QXmb/4ueNBvVqxJ1W2ZLdL7CxO1bOZXHMJVe4wmzcITc0abtw27Ijz515Ft2Oybp8GCXh0s6tmI3ft1giVnxzZh50HgAJhwqiLwV4Zl3fZvcju/6nOlOClIenco/N5eN5kiR/hdCuT5Y8eraxxDGUJqrlbbf9LQjGIeYOmuf8XOj7wVB772cWBEo0CpxWm+K/JZWoSgVs1r7kUIa1nINP5SjdXld92NaD/uQsw897WgrSeHYfbIGKuCBWG1DVP9GMczlpzMU9A4BGVHNypyilGOuCa640SHyGXrtCFi62ZyQsfWV8PpXtxU638Kx7Yur2bjHP1Pb99O7P3cB7D3k3+H/oHdtcqfBa/T+yn6hqOgUKM+U9xSBVGrhdZDnoSZC16F1gPOcsnL3TW5GlgSvgtK7bcOsOSBZ7iJL6VQnYJMqmV4RqPmT83YEerEWIJQ0kRKXjcnI0V+X6YGDyZPjnThfg/7r7sGu6+6FIu3/xhhLVj8eodvqcrPklG9R9ENgTZZd0UR5Mn3R/fC16D9mGeDOhvG98KvIJbG+zTAdzxiGZYKkGURr/SrqpE6BSoOBza1dLxANF8XXQWoYsMf0mwipJ2kSoIO4bFoZh92CFKahNeobYS7vJqRACPZRZFEV0jZYArS0cRuagybPi8UCDXZcH4ktEhSeTbnZDlS34sdd+GW7+PuD/5/Q/b+Xq/2HWDboczmhI1tGnZUHPlZPNpGoYwGLGiqGyhVLYFLOtbihTOzCd1n/jt0zvntsmyibp5Cqvcjx8KkE0VZtWkuqGV1wUqMzvJ4x5KT0Wu88BR5IYJAJ3L4PMX3ybRxSpgkZr9Y+CxQBwUjqRZGhY3G6kGRV2AfIiQesGZPI0TWssYX0oSubJ1RjK6ht/Pn2HX1e7D/ix8GLy0q0idpT5Mhx2IwMgI6LcLmdoaW41iPKqiJ+rnq/up5IQDozCB/1DMxc/EbkJ10v/EE7EpjKbZTbO0x5DNFqzkvxwCWPOI9NRRY8MOsrjeaoo2gQt9NYl+i0LsLz/PUwHvqHe+ZZFFvVuX9VQ3bgODvwOtLjrc7rLqIah9Hwi7n7dM/uA/7vvgR7P7Y+9Dbc1eo7lKEnGj0XZtIsPeTz/oPv7EdM5nmeaTmNpgXytA6/VHoXvCHyB/2K6rSt7EQZloZLKlGFo63P0hAXcl5OYawqCiSzZgFOVSNziK0+6ssQk9ueREdJ3plx3LlYODvqFjpKBWFcrSeKqs4LZcs3lgoHm42dE2ErqHZ04hJThZDDvo48J3PY/eV78L8T7837Bgxhn2eUdFgvvKzeH2/ieKVII7+ZtduNc72e6F73h+g84SLgJlNy5qP+d5Q2zpSLLAanfPM2ONXa16ONSy598hpbnxLhQTEWD0cZR+2ny0bfw0n6IRspXTQDYDYob7ycLFqh8Lu+OH1St8KG88tx64x4glrypUu/TGeT6ZJoaI+boDFn/8Ed3/oL3Hou1/AoLc4tnmxsWDvp+IN5vEwxNcCR13xoaeQuhvROfsF6J77u8i23EN1Gx3XVzVgRnYEWLx7xCbxS3XlWMV5OVax5GRIYQnpsK1mujaNoEOPbXiBnHbJCTeo24I1TblZVH17RedsGkilihSMLROqBkZDSRW3Ixn+dxnyDLWCpWWItSCxD15v7y+w55N/hz2f+gfw/EHEXGkx6dLJgM3tDHkmCvWDjmheLxnnXqlUiNBEpbyN/GFno/u8P0Lrvg9RsyopOoko+DtJ3ckYH4t6paQy2iIkwis5L8c4lryMaBQ3qwwGFBGiKlPWRlRkp4DAP6LMlREJlE2dd9J61WYWKjAAEpEYLpvCFR7s4hziOliofyz678qIDrMqhizOWz3g0jwc6TfGd8Qk4m8mKkSCxl2Zs4UQERtjtJUeVaVnHhTbB/OHsP//XIXdV106TO+HyNAO3UEBMZQMO8tWC3Je1P2RXsPyPUJ+9JSqeSmidtl9HzQMOz/qGaCargje30kNbwws2hQWa5EpzDiX0dNVmJfjBUvOIkwjO8EhZBMI3/AUeQeTKdtG1U2APRWMKNBevBCOdTiWeCMZRCy7HEgsjg2pGHtFhwIdviqCdV63BHL9LFXo25hTZDsMIPrweOaTu30wwKEbv4Zdl78Nh2+6HsyD0M/k6U+SvT8nbGibfJbivsl5MXUZrGKcoenoZYdmW05C51kvQ+fsS5DNbh2rAjXGD5wys1NYvPiB7goRrkl5zSs5L8cTlpyCTEv2Pa0swtVuxMRrHGQuSDYjQoQlvnyr676UBN2shdQ5pJZhM2f1WGRe2WSTA6ypBw5lqm3oZK+pPC2ZLEqq7gWbZlE1QkRu87Yv/eJW7Pro23Hg658Ysspxwwr50YYNrWEWbktodpWpmyIFkaFKCjqAkhinxJB30f7li9E9/5XITrw3iLJoWL0u7O5tU9qf4CRysTgZpur96DX0SlbGHsG8HIdYctnnx8o1ZqEkSTvI9JRWPDKkeXFlP+iQa4KDXBqZIcxGaIAozCAOIjt+3i2L5L0oTwvJDGVSrmiQKTog0m5qWRxWaDqkI1vWKZZgkmnELkcA+nN7sfcz/wu7P/E/MJjbG66vGg9ue9QlsZMJ4WbnUKV0au1zuKcpQnHnCaBWG60zHoOZi9+A1gMeDVCWNP+WPS+B9uVgKa6U4gW4lqMIwfzQyszLcYwlZ/aKw2zkh5wOcVSGOt0okoirl5GHSoSEGYROeEw7L8l8r9uRxMh02GT62shRKjznj+qZGbJFCmnJLrQ3S0jOTmC76WewOI+5b34au654Z9U03viMlP/d+FlaIuxcXjd7zVNieTjFi4vVuvFmhgho3fN0dM/7fbQfdyGQd1Y0Wzkdqrd3SaY8yaZ9OnuboutFmvzh9IwzL+sBSy7p7ZiUl3PkADWyzfRMZYpZvWz0KhnIqbovWnXNpf2DukJrEPpN7WF8SkxVKE3wTLDNRGJNeMLKpy2ygE05dukHKlPlyTS0l76dkiNC1dI3feDmb/4Odn707Tj0/S+DRXq/G2lEGCjYmA9pFLJMvqMMFk/rBgLttUpHRzAvTATauAXdp/3mML3/hBODiFeTSJA9Zqx9iKuXpPE52Kp+FtKYgz7CrFMXLLXsmPOyXrDkFG26HkaL1MorXSxh2CqMBLGqZYCRGVILt5SWzNAk4lJFUhhtwNg2FzUNkG0fXzbN5thElRDMNbRTOAAAIABJREFUtvZbOfwUtolbyIPhzG/i09+3E7uueCf2f/mj6B+eizhVEDUfuwV7v/WzJLDo+efQV8dsPPCjfbIW8sc8BzMXvQbZKWcks3BXU5MpfV/saIrmPUFsIwik1nswR7JLfNN5WWdYcpuly1FV2EkTEVGcIhSsNBuWkZfKf8OR1HIdRZLPI6uxVdcj6ytlYSdyVVRYFk2yYPYl458uIj7leFxpRyJM7Tq6hZQnJ62XiwJLEfK10bioOTR/EPu/eBl2Xfku9PftDMzVqJuPqrDz5k7hZxmem1NYWJvCZUpA6SgfKc4s9bFRQSm1kN3voZh5/h8jf8gTQyOT/YjZagmZ4n4VqQwlMZkTzKx8/Bze4qLuRr6niiLCBvMiNcD1hCVPp6yzS8jkk/1yI4oFdhyroW5vm8PqDDHtG+CaFHwOhK+1PaUpEygikRodXyhw6SjWJpI4JzmYY5/eEg7+4CvY+ZG3YuHm7zUiMpNpBS0ahZ1zKkmfZSvdKBabqUz6HrCZ99K1t+M+6D7rpeicfQlQR6OwRhqMLluhsOG7uVYerT+OZCSWJkWQAuHPi/cSWU9Y4iZSYPZw5JnQ5bchXwhHzARO7E+uOyHVH7pZk1cEVF9h7RAvi6JFU0ux4TUdzxQCgIXbfojdV74Lc9/8NAZLC6EFQ0bzNWlFhZ9lmCtXaSHjY4k7estr7m5A5ykvROeZL0W2/V7RKE+qYdxqCRny0iCsCWgLdxpwgzajqq0ZZx1gyUuJw05Iu8yWFVEGsYhZ8kGQiA4ZqRC0Syrjxk5URtQMeU5K6TMRaYdVrkwwFZJ3RUd8yDiJSTmDE62eKFYZQfpeUehoJGET2nQfABgc3I/dH3sv9n72/Rgc3KezCyjaPaX8vTPys7RHBC0UUAE2wKKulavDVFUIgShD/tBRev+pD48myknhIZ27a6HBhIWrhqktVRArU7pIxyzKl1GEWyX+3frCkjMj4cyF4zAyfiPWYSuOHi9DoSmByIHEZE5B4shYThmXHcc4fdloWezad44CwCaAzZGADrN/HA+bme3/0kex86NvRe/u21XPurqWu4U5tKlI73c1xuZYvOlT32UZWvd8ALoXvx7tR5wDJNL7j7YGE94SoblyuJ68NaaXGZlaNG+9cLCvbygc/1hyGy93+9fGCpZV6JKgySI8Mck6vOSMxUVmoeSySDJqmw6SpUZBCNUyuCHMcayENA9GmPtCSsLHMS3e+TPseu8fhxGWlLzGULBsyEfNzFYIi80aUN0nt5yEztN/G92n/zawYdORmzDL5LWplSu9RfQP7kc7WDMh5SEluxUmXlweY7uXFR9dv8c/lorRLnACIk5EROEKJFWfIASTcRpZdd9ysGiHkY5KeTw4Vbaww9nifC9T3WJdBtyflnbQ5cRhRffpZwlLB6vRKKzQRVywEoZN42dHYWeP3nDZWLxoVHsG7Sc8F93n/C6yk087YsEiBUadABlXuCzc8n3s/OjbsfC9f0a3I66N4h0Q7TqP8qWp28Au/7I7nw4D/3rAkrN4m7nRCaeOkI1WUvhhbPzZhpLNIzoKj8EJOYeMLZ7D0UsECnZjn6NmOPk6mY7Zu77CL8EhsShx3EKTPignrB9Ka51nyRwG2IpbJdP7qyyVFcQiUgkoy9A646xRev9jgKzl1v2M213SCpW6MSyFhd2fmdHftxO7r3kv9n3xwxgc3D9sm4LMTwy13LO2j42Ou7rrkSnUntl/O0E7stYPlryssSFdJliXwB5y6aY8kFCVxWpjbQjcvsjJ8U2Eb+kiLJtuSUu1BLyWwVN/TX43BqPChTVEBK/UR5V7OcPlJr1fVVSvJJZR1jGddF/MXPCqYXp/u5usA2oiXOy+49QhedXjJT3F4jwOfPUq7Pzo29DbdUfk+sLe5+68mPWg15tTlGLq2sgsMt3efP1hyW0VNKs3aagxkGOSeWFeLRA4+F2yTbBdEIY5L9X1MgxvcxBujrmPSKb615zH4nV9VTAFZDEfB4WOYKstyk8W+FmKjgi8KliyTVvRfsqL0H3mS0Gbtyc1Co9trk7YLEfrcTWYfg+Hfng9dn3kbTh809dFvZtJb4etri/8fGZeEv6oigfIzzqN88CFa3E9YcmDt0pCpWjSLIzc0sPwyPB/b5RwH592QDZeo8gIkeMJ7nX756HaeSDvrUvpDuIkbCJ787sjc6jd8s+0olhabbQf9UzMnP9KZPd9SCONYtxq6HG1npgGs3jXv2LXle/GgeuuAS8cCniLSLxJqYlG58yP364lfR8o8UxEn5vjGEvOnHITN3Ifr+JnnPMLigjrrF5zLMs8g0jLbo/Czt0WOY7OlcVCRMP0/ovfgPzBTwLy9rKcq2vx4YVD2PvZ92P3x/87+nvv9hm0SPrVUi0w/MdvpdYON1pTxzeWnChsxupJPI5AoZqLqWs61/zC/ZwQ9sJdxiCjhjcg2dva0XKiHVOc6+W6uRtpMC0AG4um8YaDZjWw0JZ7oHvu76HzlBcC7ZlaMqcmJlKdNhNz0sZIo8AM7i/h4A1fxs4P/QUWbvuhdmgi3k+rfCNH1lWKTblufTcx3anmuOMdS64WRIOHzwoFa9/VHavjJdxAuLCs5U0IplA0cI0QowgW/7i4DOfk6OF1ckQQb2gN/SwtwTu8OlgItHEzOr/8PHTP/X3QtnuqB9sTCDFBsZzj5HdWyIT7MBZu+yF2Xf4OzH3jk+DBoKHyFvoOQl+E9dmFb/EmD2lq7rnmmTreseSBDc2Idk2kWnFADfQQ1FmBrjxsGGyqlbVcg4WWfYXNj/PGaAE4oUNRsr0Vw0IttB/2K+he+Gq0Tnuk2zQ+qU2MIUSsFuNl8qb8Mb29d2PPp/4eez/7fvTn9ijthBOLmoRzfHgehKlAJuSm6E1r1kLjefeYENYZltzjLmH2uVuVYzninlDJPBxpcsYOPW9AF0Hx968T+aDGj7L0fofX4qp/FJmTGlNkHBFAdfrtCmDJ7nkaus/7I7Qf+QxQZ6aRUKhzxi7HUVvn5OVBH/u/ehV2Xf4OLP3bLUDZn9q8CMXiIJXFDWzMM2xsU8jKapWcBBdKrTsu0dFT9Yi293kdYcnZaxuEkNHMJtlxytkizQCvTYZpsQM5proiij79HvVCIIhKPhho7nFThMMuK3pYiMgUOmQDTOZvirwtUtSWxR+2mGzZWGa3ovusl6F7zm8DM5vGEgq1L8YxE+xiPphCsMz/9Abc/cE/x+Gbvg7wIP6uiIQGZ0bFni0S3Ry8THo2GdxGOrNndSOsLnH7eCO8T0Eh6TrBklMT28g6zprbKfHNtWvSSQCTrOeUPlGR/xGGo82bMPVwxBrci+8keXfquig2l6k5juUBNsXS3YD2Y56D7kWvQXbS/VZUsKzER+JZvPt27L7mvdj/xcvAi/OuNskJZ3+V3Uxuw/Zg2sx6J0qsX++eUOIeNfhuvWDJq7AeBYPZRmmxJtrRbglssmATXLG62NFRn7wCCFR14wp/nRvdDbmY9ipG8lOkAIOiHMJpb7ka05h+MZW2ORZC65cej+4Fr0L+oCckm5mtpJBYzjH9w3PY/8WPYPc178XSrjuDbHS2nVNYa8B5Nsxunimibox4yFP9Tc2kV+QemFK5wIQFOV001yGWnCnhaXYblBldCk5hFbkUteJNm9Z22FGkmMLiRNUu1iusdAsSw+LGmPpNxtRTJRmJ64r6R8i2f3AibEEbluZYhqxy90L3wlej87gLQTMbj8iUWU0TCTzAoe9/BTsv+2vM/+x7wGAQlkpQQuOjsGd2YAoA0eLUgD+IqkIWdt7M7Ph+ovdoiqUcNycjlRp7iO3VQEvJFKOc+wZOvfaLN1OgnYVtE0hVPHEQTbKF4GXTqQjietOfE5EubhQFI8985PR+MNokbdiEzlN+A91nvwK0eceamUPjC5cBlu66FTs//Fc4cP0ngf7S2OfsZEOO4Zx0/++6dehRbZBfIZdcB1a7pMg9mWJBxcnrFsolVP6gAdo4MbM61F51IaWxpa0Uil8LJUwZ40BG3a4JJ29tyCem7dRhyTvIz3waZp77OrTu8yBM6oeZ0d+/G3s/937s+cT/xODgPtfH4tW5Fdtzkd1MsYpQGm/9Mbx5bvAM0Jj7rFMsuU1DYs95aFhUdGId1SQZJ4NN7nFk+ji7i46ayYiytJLqMpLD3tV+UWXNuahhCJn8hyi2n9cgLjv14ehe8Eq0H/F0UKu94r6SFRMuvUUcuP6T2HXFu7B4+w+l6ywMPTvbY9nNMVdCah3GMqntPFsTI0XTwzTFEsOS2zYF5LxKSLZwlRfAXql/qE6QJ/WEiCRXdCLsPW/VYArcQarPGxzHLzlPe2ws3Y+btC/AMl8hjZHC1tUhLpi2EfCwAHTCicMuiU98PrLZLROttSz87PvY+ZG/xsEbvgzuLYEooeE50QmV3eykHHjCiiJvWUJcmHnHx+6R/W6KJY4ld48iP65lm776cdnqKouwqfMsxmOuEX4WFsRWAfcJofYcHA3zJmJ2LpZA6mqPDEUc8pEOmAEfKCUcLp1ZtH/5uZi54A/L9P66PkN1tT5NCxpTHLreOP29d2PX1e/B/i98CIP5g0bwRMKfYjF3soq8nIjiLWMoZgVbzkdflWeqS5sIx+HY8p1iCbDkUI3FYEVI0HPZq1Z2Q9k0SjOG161AhtGEmUW6l3ApnJRNpF/pzJzIvOWKSIsd5arkCyHlTC6FGYeOaWUUyofOMOl4dhiLNwIzhTw6KrNZVIe32sgf8kR0L3otWqc/EkRZIFykIJHCw6v1IaJGhYqpGqSYkBnMH8SB667Brsvfjt6uO4NFF7AQGrdbi4DZNmFDi5QDt1LNGcSk7pFPRyLvUUinat8NHOnrTI7En2JpjiVnx/fA4olgh+iWjfM0aHjvaDNVXozW44q3Ewf6FgXdKVUPaq6avXFZCmkjW7JTJEV7WetQnvBFuaFz0lnM6popcJBZpkK2mcuq3UP45mmd8kB0z38l2medWzaNj2ku8kH3wsdN6otigikmqIrvwAMc+sH/wa4r3onDP7weLLNwnTVufQItMDaM0vszivVKr7RROV9er6jgRSY22xbKlksmaD4W1NFMsTTFkpPXb1aGbW3vWrZ11RR3/ytUxb6xAnGrbgnfTJBl5XlcRU4Mw4SpK4FJUp2ws+zdAd/1Vc5FPBCN4A0cVTU9/X92C7rPfCk6T31RGXauaxjfpA1IXSGjN2ZMsBSf3q47sPOyt+DA1z8Bnj/szwY5foHRz24L2NxulVXk+s0C/XrlRLak11SOyXU6VFz3YSJYtXacp22KZSwsOUZmRNFTudLQi/7N1YPN1gtpHZHkiE7hu2HHCQXnLa7qdVDZ4MQkMju5aqTGwt8jr0NlglKVYCfGKUwk+TIvGspZ2VbGzUymHpMwkdj4PURqqvLPFA/uaGP5dytHftZ5mLn49chOvI+4B74mkvK3pLQYr+Aw1b/I239weA77Pvd+7LrmvRgc2BNE0bgmw6CdyZ7ZVvsLB5L3Sd4jtVYcWkAb2tcdbyQZqlR8aYplBbDkTLY/M1VNshGqSV4WWMhiH7qgtTnj9Do12osX72UnWzfol+v0pmYTxmE3Q1m+Ysn09iWVjcTW9BNy3c0oLlVGDlXYIpLWaqF12qPRfe5rkT/kSUmCbSs47PYmfLfjZOAGJNtLizj43X/GzsveMiR/qgnl25YyrQzYVPbMtg5CWXzKjrO/Mr0V2RiRu4+XgkH2YXLej1MsK4Mlp8C8sTHcavQqZOupv7a3Kvs1PsqTiUgpZ1hKbBupkToHVGuUwPVkw8xClSJbOm17whoeCQq81s41SSe3yqIkFUJXKmDeQftxFyA/4zFRASEFSN32OuExDneuxTKYn8O+L3wYiz//CagpiyIBGUbk5Tkhy2iURe28k+S8cB03X5iJ4d8jkbWt0gLCF9kUy8phob2vOJ0tk1VlJonexk46GGtPg252BhJmTMxPEUoqjaMy3VS42j0jFCdvBFFCYY8zeOmeCLYHdowBjJP+GXecrI3WA8/CzPPegPyBZ614Tspy+hfFPoOFw5j75qex86Nvw9KdP020bqjCzpvbGfJM2/pM1CgR1b+v3j1ORr+rv0chFOWQn2JZcSytNz56+5ulU5KVT7nqagg2+xCJZmqpNyQp7zIF2TSkncrpKh3Pexz0ESCTAUzB9ckaJtkYJaxJMp2HYkktQXOWcn6E9haG+E2dFA8w2PlzLF1/NQY7b0frvg8BNmxu1IysienjaT/LNZ8ob6Nzn1/Clic/D9TdgIWf3QDuL+kqj1HYeUuHsKmdlQxzxbxIfxaHHjjYOjMTCzV+qPA+eK8ucWumWNYAS+tNZ217s2pNoAhXnIQ6MokhxTHlP/YrqeTPIJFPPt8UHmflj9xH4iXxvf29wKyOtbhMqCNokUsRWehtJ1NFRgKXs7+cl0EP/Vt/gKXrrgQAZKc8AGh3MYkf6sxg40OegE2PPw+9fbvQ+8WtwKCPDMN8li2dDHkrQ7jG7N8cJi96c61eXByOlTqOTIbfFMuqY6G9Lz+dUzz6qWoGdsPMidoEJy0ntN4oqH+iZAxcY/T2Z/iN5GDanJDTgK06vo5sJnw7+Nh9czNmJgJAdr+HIj//D9F95DmgvD2+EFhG8/hlffo9HLzhSzhw1TvRufV7plQfgRlZX0YKLK9FS/3qm2JZGyytNz6m0mBCc4cC7hU3waEgV3YLHCg+HjWZgEJ1I1fswWspCirtRhZamR5niKXYNvQtk7gOMrw2wriJclqM1EV1ThIRo8p88lJfSnNNaI8DBg7s+gV2X/8pzN/yfXRPOR351pMwBt3z2n2yDJ17nobZx5+PfOuJ6N92E7B4yHDhhI29hnPP4TIVSiOLt2N1H6v7lrAUzBg0xbKGWGjPyMlbRVbqm3zEhULqbY0EHds448WP1ZoIGhxLqGfZxjLfGB61X8PjRu1KDvcYB3uMAVdDZBtmseVpL8SOi/4ArS0nYpI/vPsOzH/s3Vj62pVDGkx2OquT71db/tw3WcM0xbJGWBqbSMnnQ4ivWI9nJJQscs0R3WO6/vmkiCfb0TLYyxgOe1qPczMDM0xGbBiNFwIDWBwwDiwyehxG8cuo9vZTsON5f4jNT3ousg2bGplIa2YqWcvp5m9h/oq/Rv/H1wODvpgXbrBwm62l5vJbZaRNsawyllGYusoAZON2ViaN6ENS9cWWQmCkQ3DcvCNRS+QmUbCKYY5MDofuV6cdlpy07LapZ82WzoZicISlCM0XuHR60DBkL7sDyHSZ0rxhjEL7xpdShvuqqkk2/LM9Bg4uDTDfRzKgLhfFzBmPxo5ffS1mH3424PQ4mhgfzdIClr5+NRaufR8Gd/2sXMylKVusIZlGZaguylXGHk9O6ruwJU7R5L28R1Msq4Kl9cZHb3szEGt839TSpzHMjCYjH1l7M2qsOtLYV9l8v7CFbZ3knxsJF0s76DXGLYRbb9edmPvGtVi84yfo3ueX0Nq8zRUgyqZe60gTEaiVI7vvQ9E+6zlA3kH/tn8B95Yazmo8jWD8u0TBehlvHUyxjIOF9rz8dC5V6Ngbs85toSquOU2nlehAoBQb25UgmixIsmgp6Gkc1qx7Vk+NCEgF1zzzK8iANZ3mIpgYwEKfcWCJ0ec47JiGm81uxdZn/Ra2n/fykojKqy9a08iSh2EwwODOn2D+8r9C7/tfAHq95r4Eb+5qXH/RNWNNgTHN2SmWeiyViaTjJMqkQdICswlr8V7XXC9fXCkWa0rvdFzWObvMuhuBNOMgKxxCXw8jflydzPH7/KbD9+XvIxqKQ0uMQz3GAI4ZHCOyHV1r++RTceKvvx6bzno2qDMT5W5ZKyETE3IY9NH73ucxf/XbMbjtJgCDRu+k2HpKqf8EP92AHWJ4Nit5imX5WIYmku0zUmMI2dFLxjGOiBZRJ8RBjKy5UzzZG1fl/pFLkaCNFqcTFfvjebE58o5RCp3IhmQT6VI5jGTOPwzxdbJhr58BD7UZ2VUhyD00eYKDuX2Y++anMH/zd9E+6d7It99rFDokt5ra/rOCwTO1mo6VrOYmQuuUB6DzuAuBDZsxuOMn4PlDel7gpCV43S8DKgh5j2QDPkm7ae6RzDgXgYspluVjoT2veABTjRRctmd6hY6LHeuR9R3JOVbaS78SWJgZi4Ohf2ZpsAztYWYWJzzxIuy4+NVon3hvTOqHmTG462dY+MR7sfS1q8p2JqtxPz0NunmEc4plHCzGB2OJH2MZsbFOAeSoUb5SFctWIZXhmzaRQtXMz8iN1uEJrSEWXmete9TOAwsNRof64pqaZ1rZa2MA8z3G3CgvZlz/TGvLSdh+4e9h6zkvAnU3JgsfPZIpq9F4Ph17bEqYRCvG+z30b/4WDn/4zzC45YaR/yqdOhE+FOH9p0Bzjvka4uudfA7KKZYEFtr7igcwjvnPasnzybumATPmlhiHexzlXXGYI8rvOvf5JZz4gn+P2Uc8BdmE1jcBAPeWsPjlD2Ph2veBd91+zK2CKRbpgxkzY3btPuOd32owRxPLas5It5Wh2yIMUEWbSPm6oGs7RYJef/8uHPjax7F4+4/QOflUtLacNJkSJsvQuv+Z6Jx1LgBG/86bwUsLKzSDiK53XSG3Fnfz+MYSaDDc4LRUIxljjdZifpRxH/GQHdfm/zbvRx+zPVM0w75pk/aoL9fzjwQWZsZCf6jR9JaxDrPZLdjylEuw/cLfQ771pLHoH1ImUsxJnDKRUlzBPBigf8sNWLj67ej94EvAiFA8VZwSu0fj+Pbq1nddV8oplpEPJvWOblKtY30HqXe/zTBsIlIap6GMqcEE2Y5JRM31Ii9M3aQGNh7wT2Mp65aWRFh7DP9MvuNe2PGrr8EJT/5VULuz9lpZ03B5bxFL3/0sFq54CwZ33TJWiN33RfhVw5yY/5XQY9cTltAHMzHG4/KAxBm+1v7y0qXuK3wuHjp/55YY8/2hoIkJeO8tRyDMnPEonHjJG7DxwU9QtBApx23dQx5zDI/Lrqc0pvk5LHz6b7H4uX8AH9xbu2zcRm9lajuXnSjWIvy43rDQ3pc/gD0VPdrMjHSyrl3BkiSc2VGpnMRWh/o2qUWRE4WhMeeZ4V9L8tobqIUrsjZq1Jw6LEsDxtzSAIuDBovN5v7kHWx+wnnYfvFr0D3l9EgLxgl4/TBjcMePsfDxS7H07U8BiwvR8rZx5732HhJqyQOmWAoTqdBgaqrrvOjEcgy5gFM7JQqYVA6abkOCoEluIIhGhVrFLjbjmURnSbeLpm03Q853TvEjOb2X7Wm8glB7XbaYbCwsPNRkDi4xejy+2GttORFbn/lb2PaslyDbtHUs2s5xtJEjrY/i3hJ6N30VC1e+Fb1bbvDnjHUeml0P7tqOOB28BDYe87v1hEWYSMdHqHetryJlBk0ClgEPSw4OLnHQI4tqNTxC+56n4cTnvw6bH38uKO+sqIBZ0Wufn8Pily8bhrX3/aLxSpmMVX/8YhmaSOTbY7ZRmmfqRA17W6zoG/6BNsSqLUJdfXklLnVjtRo3uhv+YadHpsXU8LpjDzHH1VZp+rHqcHjkWHhUbiCrtdnMT5kB7oTNiDJsfNiTcOIlb8DMaWeCWvnEmk28507Mf+zSYTbwwsFaW1ay5ztez+g9QIyfzXTuabz+jlMsykQK1KXkeGFTjuaRkvF0kSbhYz6C/WLv9HEYiusKv1IhbV6B8zXBAh6SWdWWHUReX9TdiC2/8nxsu+B30T7pvss2c1ZDg7GmV/8n38Thf/pP6N/x48i6Y9N9QpvZsXVApntx8j404mA5vrGUGsyy+IO5VgrVH8cN3LGe5IuqDnUNqCyWI1UGV6Eaadnxx2ZYBmBVdjDuqPn2U7DtvJdj69N/A9mG2WULgtX+HPrH/xtLX/hgjRNw3IwprBzD6jrAkpVqtC3T9VpqiH9le1nLIVX3Dw3GLzywqf3MNjY/9T9qNIa/nSNjRs6HxHd2P8TmVhy7ClgyGrZt3dHNsDHXrUW55l3BAHq778Td7/9T3PrfXoi5b38O3O8dFSrOxou+wbppthYi2zDes7OesGTVomK1yMpFjipNjFWiGZm/zbFmsXLNolX7EAwqZ0yqH7M6TvfatsfZkkum+IMWuz6YOYtdozoH+WMopXCVsIAIrYywuU3YMZOhm4l1wdpmJzFoOeRggIVbfoCfv+V3ccfbXoXF238EHjQr915LZr2Y0GTHfxCbw9jx7ByLxNpfj1h0b2rTz1qGc8u+z7J7ielfSxHLhZCwXmzkw+yjepiZsJjaz2wv8FkHMzlPcWws3Y9b9LZW12jnxB+XnALEAJfjoF5tLESENgFbu9mw7KDH6A0ijjiP8XQwwNw3P41D/3Idtj7zt7D12S9Bvu3ko0bPiQj04HfDk0ImppC6R/a7YI05YyF2/49zLJl7lGU3Go3CZGShm70jtAUyWoiLhCIrQptIhRZSalNmrLpzsGeWyPN4fZ9sF0qS1y7nSms/SGIxsp6M3I/RrK4yFiJgJs+wvZthc5uQCZjMcXWAR9sGhw5g99WX4rb/9iLs+/wHMFhaGEZ1ZJn/6Hf7s4wARf7Z7+Xfdd9FdVwy80IJHciE9LhOgpHTopDWJ5bMLhQe6e7Mchur3+X3bPQjls8KV8xy7Olq0GMXOLg8j1zcpHUzuUgdvY9H+7B5npntQ8Pl+RjiGiWW4PiK4auaJ45iKedGPZikronl9UNe/9piyUDYmBO2z2TY0IJqLV7sBn3ayv8FYOmuW3DX3/4/uO1PfxOHf/SNpKPXM5vqWPWaOIz136TXHsTycdcd1L0I191IiRz1Grf3CM7Y9h6tJyyZ9KNoR6nQFFTPaukwJG3bieML3wcbNs5yW1HvQJV2xNCOWZZpKXZBF/RPxX5eT2wi5UOSTlSQ8flIraugACUt0VngssfKeWKleek3gn1Ekpn4AAAc1ElEQVQwWcwx2zeP3b6GWFoZ4YTOUKPpZH4Cd9TnNejj8I++idv+3xfjzkvfgMU7fxYVKKlttkK7ED6FUPEEUaA1mevzlGdZ3kIU3gNWPjMW2iAF94iNVs3WX7jOsORkn7jSQBPM/LC6NmsjLMVtYJPiONYaxSMYthhMsJ29USQfryl85KouVOmA3CT+7mcFhtlAciQKnaPeoxnVc3HUsXQyYFs3E2UHY6Qk9Ho48OUrcOh7X8S2c1+KLee8GPkJ22u1GkvhUAgV+3exbyqCRew7HUqrMqgAlGtHrIfAE2prN8w9Yu84WndYMpRaBht1l0sNAcKXwjSs7wnenEZrkIhjWkH4O6lwKouIR6m1mDB56echNtuNVgbS2o/wYzDCMDFET+lKyo9mhTRpOJchZFbh+0pz4iAVgJUHW2hjVrOYACwAsCHPsK2bYTYnZORpPVKz0n/3D+zGzg+/Bbf96W9i/1evAvq9aHQpZiqlNByryRT/BlysBQrvL/S8KGuhXIuk5kW+xln4wtikVVRjmePWIZaMRY4Ii/Bz+JAjbJJk9mEphMRP66Qtzaci1E06BM7SPZ1wVHLMgav2LwRIwvk5EkBSqOrwtqDtp5jpR9WERzFyYPJVwt266qncPilYsoywqU3Y1s3QbZl2WKmQ/Oj/hdtuwp3v+fe4/S9fhvmf3jAecU1Dc0p+5nvspmAQQvMBYnlLA0vOi/JDkUyBILGmvQec1YthPWHJw7odG8OtRq/CpI6No8iBSexny4tNv1u3lDMs/yTDF0HqHFCtUbScoTC0K4qsyOY6exmNRqYGTa6CHr7FaUmHhkEqhG7KuitTJsgwniQsQE6ErZ1sVHbAw7KDBpmixAB6Szh0w5dx6w+/gS1PeyG2X/B7yHec0pg0vAnrnm2+V1GIsr5u6HlxQ7XOvDTPGufIPVo/WPLiKDle2XqJRScjIrNSrISjsgJXsWFRxYRVvRkpEuqiyvEr1j1VSRvqe+uQIopXNw+vj903O4xqSKRb4RbS2HYNqHxF2oldstiR8IlYk5Y0TiZj95L1h00OlmIeu61h/6bDPcbBHqM/QLzgi3UBHS/MY88n/x5z3/gktl3we9jylF9Ha+Pm2qjROM7h0kcTzJPw9JHf4HA4DxT0AtfzSs49IrEHOceuLyw5MzkuRVIKDctGSsIvUrwd3ExAEiFQEg68oN9h2B6NXecfme9ZS+YIc13VpoHNsTFqSkrw8LLr36yoBFUGmy5HZwR0nl4TlFRh2ERhES+uDTmh2yIc7I26HZC/MEs/v6i47e3+N9z9j/8FB756FXb86msw+4inrGi1NrOdGcl3IlqlFt+yJiwI1wspk99OTzUvrJ4n/y4d/1gyGd5llSsuA7ys3nbqjRrUKbDrVAyckDDJYkUg3eu7XYbNnX28fAwTrq0cu6xTZkUoXCevyeswvg2LBY7TWFyftYdV2J/MuaJJdhOKRby9sgzY3CZs7w7LDuAFERMC4PDN38Edb3sV7njna7Fw+4/APEgm2zVNyCvmh4tghU1xJ6+8oiAq43BeVBiOkvNS+S5ZJUKuJyw5xQoRmGtCUcWvHDRpC5jcxFuV2I+Kaikp6DbZFIsrL5TEaIlyrMvYkKAYmi1N76mvWVFUsheiY/v0OwFldlrrOvMbXPOkYmEtIUYSqZ1xVXYwCmsHcMiFiMHSAua+/gkcuuFL2Pqsl2DbuS9F64QdR6TBlP4mr2qeLQOi9XCSWu/BHMls4Zp5UWOsIyyZV7hkCw9tAaSOEpCJxJgkLvW4U5D0oyMPOjGOxSopxpYhWi9xqNK0qPpZzosch1SWaulbJhrtQ+F8QkfHwuiZU2WuKqTJJD6xXzhGJKJuE4qFyFQOsIoadlvDbOBNbUKLghenVkjF38zA4NAcdl/1btz6ny/Bvi9cBl44tHwTCTqVQa0787PSfFmsMRklYbW2q7XVbF7WI5YMTshW0QOYHBHYvykMbafKuaO5MDIb14vPkwidk6nHieTWsDJ5zLnFRCPILWFjxqFhCTubHCIrjDl88N3x2Vz3BGKBcz8MFiJgtj3MBt6Qk8sfHq3IZWDx327BXf/zP+D2v3wFDt143TJVGLkWTE5XJPyqzEzyX1ywKRBN52WdYYmbSIHZw3HmWarEX5hnyhHVnBP7k+OsNSp+jQuUUguOtWbl9dZezpuSdLxcODN98yP9VPARvbXXAktojvp75RnhhA6wYUA4MGLTk5kArp+meAAGfRy68TrM/+V3sfkJF+DE578O+Yn3HtNEMmkQ1gQkhCZEcnabUnvVjLMOsGRWU/FUbFnj4GWZluaHLYwTb8Ow7oWCDFCZZctkMwgRFNaxVAOJg/3K7xVmGe5lQ/DE6vwudjg1V8V1O/VEcpWzIdFya4IKlTWoO5o8LKpejPyMXpm818mA7d0MWzqEnAJFtUwK9RQynj+M/V+8DLf8xwux+6p3Y3DoQDNh62CJVWZwZI2pcYCwVu4I5uV4xyJ6U8PNH6HGb7mmvHxNRl4elwip62jeg3Gcq2y+HylUPPZxxw6W+v1I3aM8G4a2AQy5ZzjUVuGkbgEAFhf+//auXceSLKvulRlVVDOoB9EID4f2mT+YH8AZwSeAORLYfAc/gISNiYFgTCTAYJwREhbSSLgzYrq6uuuRCyPzRuzH2ici63luEWl0q+6Nxzon4p6zn2vZ81/8iz3/+c9s+eHv25M/+MM2rf3i5z+zm1/+Yojl8e9Bl15793n5HLEsOV8uZY8Uj25m/F1NBw6YrRnTS+JavFQWZlWCtljQFWQEkqukFNfZz4/kEcbIaxD1JpEIax8T9jykWbCo6u/2OdWm2BvAfueJ2bMF9vzVnX33hg+PAzJGk//9/S//y/7nb/7SfvDHP7avfvJTe/b1j8ZjGGDBEX1kFTXqWPLfYV4+NywLQt1LUl+maeIa1DdwjV7UgsFwvnfrkP4fA0ZR/8BX8Yfz1mrh2hujvvflZUHh0XbUCRD1oPPzXIvbQsVwHj8N2AKsw+ctSP5mwuLdKqTNKOwrvio4bYiA2RPAfvj0xr64o/3m5UNa+4jAH+9F1775j3+2F//5r/blj//MvvrJT0taO2AcYMnvecdNn6vdDe9/Xj4nLDe87BpMZDOCcAaZNO0h3L82FKwkR9v1NgKl+/4GOqKkjeCpXtP/nypH3pBHKQLROC6ujmNO29frWaj3iTgiyS8HZKdMY6DlfDLicVZJfmbDQpUCUoxUjFNfsDy8nk9vbuyrZzf25RPY7U0k6ctcwSHcRrO7F9/Yr//xb+2///pP7Nf/9Hd2991zEYg5hoUUAalADubeE0/y9QHm5XPAgl/9xdeKGeJDiHG8k1rcWNmWTVbo/fy97Vx87ljeFvsezrs72vPXd/bi9dvl0p59/SP76k//yl78+z/Y03/7+3fCgo8wh58zFvzqz/+IK0uYM7whUpQDzfSS5qUMK/q0N0pXkT+e5t2vXjAtmmap0bIJBXnXaKUPFPGnOHqUDgw1D76BbO3qzTGO5NMyBVaZukZmxYKUEs9zHjvat9xnwJIw+eu+ujN7/urOvr97HLMDzAxPn9qTZ79tv/f6f98Zy+Yq5vmr1esfel6uDcuSSXsgmg8fkwOCzD+gyU/s8q+JPIi6P1MGSV2hOR8mx63vg915CN+V7nF9IOTo2Y59Piw2nPMclCtYADnvT2/Nntzctx385tW9/K01oZnCDPLqpb15/dLsi9t3xhLfF+zk6T7svFwbloXk0VTBJ/h7zP1ZLJhPh+V9GqyzYzmCZFSoFW1W9fdbt7Cnt7BvX9O+fUW7M+v1mF3Htu/if19Y3s+M/f/BsgBxvWOz4nW1CdgZzJ6vdnzg2jekSnfJvfdxvqeuyUC7g5o9Xpu6m5uRnv2MWOxA0ie/Y2hf4v55/WAxe3YLe/6K9t2b2D4BvRFvO/J7xMLBu/2x52V2LItf4XHgx5cXBQp/3XYGy8O7cIzBDLsaxNKwx0+NBos+r1/DOby6khfvz2PDUzMvlvEcV//f96wnUvbmWv69vIXZl09hz+7Mnr+ivRzFZ1Y2vg+DhQfm4GPNy6xYlsIGJpano/V8GByB3ajOeD0cxRdsYNR1RFQdFrz1CI+ft1/DfGVYVMe/Kr/JSqBBiRI7sb3qNj254ap28IZNfQbwwbHMNC+zYVkUXwiVtEUKKKMJCYRiHgq3JlXoUtPNtq5RqewtDtKxnw9Nj0Waf2jmZMfdeNslYK+SdwosTkVGCQVisI1iwD+yiyOypdkXt7Bnt/eLzLevWYvL+XGwzDQvM2FZmOVT/MsqdGmLhFLzWy4iXx6Db+gdSVxm4uHMFe6Yl5hslvvqZ25t5D7DkDpscwVy5gG3NJbwXcaU/o1mt6AoOAgWfeU9nwtLfidRsZTqdaaq6bQiUnm64n5I97NL28Et7JvXd/b9G4tNnB8Ry0zzMgOWBUd8oxw4O+6n9B/jwNaJeg4kliZU5cmJoe89JJlGL6G9lg2A0XTsxtzN5WiOISS0Z8KC/e8w8L+BwTuj7j28H+zJrdnvPqS1v3nNzdL76FhmmpdPi2XZ0nqVEChyQmhXp00x5GZFFfHVAoVVja9rgLBNRyHg3wujy5RLkldJKz+aBgwYjpU/Jlzhmsn160zaqbAkhZpj84w+ldFVDFq1RIZYDA9pbdrLNxz4jx8By0zz8omwLMQg0ixMcmZbykRjVcO5aqKxcXSvbG7l5sRAM6EaK9FUt+bGrcYyQ3L1/PEYjKuNjyDLP4gMW5FhmRiLeGZdU91ld4zyKNzC8WI3DPGU5rnKZ/iw0Dxb8MmxzDQvnwLLgrQqHY4Qo6pmgwe8p24HHm21QBYnSNl67xrQfPXOsBLVi041iLGbDeMg08VDWTAo95Hj46bBsvPsFeVDfEb9+4JBQPLEch1YlryD7aW2QmgUeLuc2R5qqkDBGNvYM0A/Fuyl9Dopt2aKmsDqbsqnszCmxfLI564oH3hk/pv7nFiuAsuSy5CogoeJRSUW1mGnyHiYbJLnARGPugZxbI1YWyuxV5HsOrLRG1jcuxcOppAxzO4N+TxmwGJdWMz0tdQ7mceWzfrO7ceJ5WqwRG3qvFN51VjGWAeE2YPGnIBa9dwSCesYjVL2KKXFwnHp8wu+HPiF+IV114p63IhR9cx8ZWOMqHLRFZfF+o18v5mwrK4ummevjNV0njq/w5K/O7FcB5YbeZYPeLhfOJHYj9BW6bgAUa2JkQ6i+jzInUTFSIqg7uge5fMjObs0/qBE6RmQgvJlE6yW/ieTuqX1NKuzYUnzHp89hyY4d0vD63W452KfWKbEsgS94BQW3UygIItdupVlKhsPZcaW6CTSxS/d3Jle1zPGAGrEXM/vK2+5CXULYmk8VBLRkZCCW3wpF5pt52/psqi5PVgwfTr4UhYQQmpMlc2uO3xCLJoCxGOpFKZZXZSNljJEocVmmvOeGfHEchVYForYA91bSEF0y2Q6FMF7EzbbWhcT7Tis6nPZ3kJRp6S/P7Fea5NQy5ktrxS5XZt5HGGnd7EoaQEgVjGHMaMEyJieK/PO4lZkXdk8JxaqlzBvHskAUiqjEKUMLK4yQ+0DcWK5FiwLlN5s8E0o3m5aWXF29SYux3YN4jFcFPIlTFVhA5vsMp6Ypt4WTPgtXNqQQwmDeGOOkr9uledOVxT30mUTY1FCboqEFV4oEo1XnXTOpSY6TixXhOUmS4hu4kpchdWCrCQYxMyKuJeoL78XRUMvG+vOZZKMXcXdnCibBbybvq7lcZgF3WxL4m5R5tKSVC2iwNu67F0sMCTt3ovur5PrXGMZDFg8zovGqhexU+J2s2GJUrTYVNOcLnKZU7MkfpfF9eAkTtM1bXuGJ5brwbJkEfSgM23VTFKVV1VxtoagozuTkl6o1ovKserALlzwWbkSTrM3uYLRLfRpL0Rt3xAIZnTzwvmmK4pXk5HVhIVwJdcfOOfFcnm5LLnVgCx7iBzB1ZPNtmtIgxWj9cRyLVgWFPcm53C3q29pUpVMZ+RfAHWPT4geWtPKWdt3s5Aawj3cWlWcBNTUrmuyQm6d9gSvgkcCJWotxuSD3KGKEiGFHvK/a4DWkS+rJq+ZsLjPNBZXKR3S33XzCHuSwNJz851YZsayeD3mvK7dZxdyEUR0mfyLfmEYD8z+sI3JvBAIsxSm+AphpkXjspOGCuLSL6NrXRlEyNCm9rbr+zI9rp3ZnqnfreUhnb4ymMLFRIo1lns+kt+LHA+bDYsvwaxqexWb2/2gBTrv752eHnJMDieWK8KykIrbFcGgoes7gouLGAd0imt8FoF8OZPydV0zARMjdVKqrpGBzTi92Rz0PUyVjrKvPKZ0CbdEt69KqtKtOcWvhEc4aNCaCouTG7b2WW6zD+eirdIYl28Zq6nrM0KohTKeWK4Fy+I1aVlSTiwvHgO7kUoKuZ022FU+wMx14cnmmrWUA6wOYpN2ZlksLyl3n/Wi+84EGxNrAmv9nKVueo0DkVtqH1b84cgBTIdFpf4sBmZnwuLeYpIiF+4kgN2inVOodC42Cw0itw0m51BPLFeBZUHH5kzupKI2GdMs0lZ+r25XzfdjssI9k9b2f8HJaYlvk6WjyK3QD9+wXqfcbz02TkUojy7zQslPESMhbMS9a0wrjnlWLF5v12KaNBcuiUx4ej9jpDkXQPn7Fm3UE8vMWBaaNZy4IoZjot7lYcfExR3ylg19tmOL36iin1gclldghmuHOmLRM7X6iStl5gO7WbgO1mweGc1Drtej09dx91WBbrfKA7WFmQ9BIpCu8IkpQO3S8rxU02JOLOaDwcJMBx/i5lvwHIqQzDfUyjIcJkpQrPHBE8v8WJYR0VOoERnVXxlShW5fp6XIgWrkRMiIwP87Ffs11yPiD0fx+MaUN+vmP6rHU4VqiGn23AdCNNVuyBXQcdzTYQmlDJo0ZnPPUqd+uj4fnjmh4z1EZO8+sVwPlt5FKm4PmwpQhvrzWmfKxjTn4HiIYG0y8XdCoCPCK/9rzfq8/TjHf7GKlkGFQVZSDv/eTbnxY2Gp7mj3fqC6XYUrYucadlSQ/cQyE5ZlXXGomhIZ6Cl9IGdLTFxSxy47lFYF5jKXNRcqMiFEX/WcYiahQxJ1YcqxBZ8yv6TQQ1w3BINreVAo80mB0DUnRUGi/WBXEi7tz1TuE67PUJozLxZsZvOQPjmxoyGXD9TnmlUMth4pnliuCMtC2iCYayJglOJGjGkrtue7RWpkiIi+CnIEic21KoBynRT0ZbKyKP07YQAwJY1p0gLbsnLpPJ3+GgxvFizczG/WzSJrXPmAIfVQJBambj3KZ3RimRHLkvPlklBcLXmF8RdWVMHKMsmq7pauxUtlYVYlaIsF3cACyVVSipPW/0FXoVTPdl5arTdB0u/Zw4Q9D2kWLKr6u31OtSkWI8EwG2wWhaX6xDIzlgUh0Jf0pdkEFlHfQAgBM8hemGR2CaWBLWAUs1JhvD6yDVFtaPr7SP6pVQbk/xFZcLRiATdXSyodcKUD7cxVs0pJPCMW75p3LPXbc2oo0VDfjYZVwN2bWkzuxDIlloVuN5P8dKKPkMkqucRhcv45p5LTz+IhPWYi5cwSOFIBR1UIVA6jknt3RYPOpwwuVLKq4vxUObs2Pl4MhG3c+VoMRFx6J5oFC/UqbDFgwxIjRMYSCISFRGWu20a1WE8s82JZ1r4WxDbBPd2uopBYelwgU5+wTi5wnP6hv49V9hiT1hPay9e+HPSKiaYV7pB6uKSbYlU9Ekq18gqxFNVA5GsiEUhDY0n3is9YNIIAJ5YrwbLkLmgmSbNsMcBGSgEoHSyx6yjw/JeuIn8MC3wRqJTpbZZ0cxc+gi+v37lPxrsrfjeKcaAGX/2cZ8LLWbFkxak850hvO8iKZRADujTPdubciWV+LAvSSoWBSYF9Q0PQJegz63/VVeoxmovYC6+huUJzPkyOW98Hu/MQvivd4/pAyNGzHft8WGw4560VJTBpznY9shPL/FgWkkdTBZ/g7zH3dxQROVj90bG8rz9eAZYjSMbKWSli94FQnlg+BZYFqGKsasXrBcvGg9kTnTs+cK3cSJXuknvv/gPoskhq9bcmgt7NzxFm3b1jZ8ViAzdNHcWB1br3Th1xl08s82BZfOEbDvz48qJA4a/bzmB5eBeOnC3DrgaxNPCwHTDITqWjeXh36IsIRrjY8NTMi2U8x9X/z3GyunMe+WGcWK4Dy1KyCmJ52tVganbVcRRm74psYw3HsdA6IqoOC956hMfP283OXRsW1fGvym+yEmhQosRObO8RvsCJZRosi+ILIa0XM4P4XtC1FF6adGyh5y10EWj3X4jMBx7586HpsUjzD82c7Lgbb7sE7FXyToEltfKbSE5ZK/zZ84/s4uhs/xPLlFgWZvkU/7IKXdoiodT8lrOUaxHo5g4FQZiZ+otR1AtlIVr5YCxyj6cmHEpW9NjM5ccSvsuY0r/R7BYUbeKB4E80k02FJb+Ton6rVK8zVU0rwTiFhaJS+cRyFVgWHPGNnFXySD+l/xgHtk7UcyCxNKEqQKSjLRXk4RiErvANjKZjN+ZuLkdz3NW7zYIF+99h4H8Dg3dG3RsnlmvDcrN1Rwsm/kxvyRRt7SKvTOeo71VUyndokv29mI4xju+jcJZ/s35fMNXzociA98JK+ZocMB7OiiVO/8F5hnzmMnMgxk2eWK4Ny0IMIs1SoCzZUiYaqyBpYd1OO7Z2KAwpojYnBrlY1VgpmwBrc2MXQUZy9UJLxmBcbXwEWf5BZNiKDMvEWMQz65rqLrtjlEfZmkcodsPEMy6f64llbiwLUtHD4QhxHo0FVsshoxx4IJiZFjJQWWdVNgGh44njSlQvOtUgxm42jINMFw9lwaDcR46PmwbLzrNXlA/QXWnDuc8ByRPLdWBZ8g62l9oKodE9Dt4jsRkMUjyjaydsmlozmzQH40TUAeRD2b8msLqb8uksjGmxPPK5K8oHHpn/5j4nlqvAsuRWRqrgYWJRiYV12CkyHiab5HlI2snqGsSxNWJtrcReRXLVroYdL2DKLsvebzjjV1wbM2PJ1xk9+7ZiGM090Z9fsiUnlqmxLFmmAPXXafASrn4AhG6UU9e0biRpT1Yum9hBi2uXPr/gSzrfWal2eK2ox40YVc/MVzbGiCoXXXFZko2webEEiQtrnnE2VtN56vwOS/7uxHIdWG7kWT7g4ZUBkULEaKt0XICo1sRIB1F9Dgs6y5sMR73W3j3K50dydmn826/WqeQhhuG7WhXtfzJeMz/FmbGkeY/PnkMTnLul4fU63HOxTyxTYlksiHlZ0o22onOsupWRBOO2AKrTvG149i7d3Jle17OeAGrEXM/vK2+5EWlRGFcrOxxCMPkSX8qFZtv5W7osam4PFkzH3G8PImaFRydUNrvu8AmxaAoQj6VSmIYkgqKmgVeSjPg305wGnliuBctCEXugewspiG6ZTIcieG/CZlurd6MdhweNZBZ7C0WdMmhQcxN747rr5syWV4pEq2UdU3kuFiUtAMQq5jBmlABZZipk3lmC3IPaeebEQvUS5s0jGUBKwAKilKHqYjPUPhAnlmvBskDpzQbfhOLtppUVB4MIaji2axDPJJguNsOkYzmwyS7jiWnqbcGE38KlDTmUMIg35ij561Z57nRFcS9dNjEWJeRGSEd/45dH41UnnXOpiY4TyxVhubmwyq8xjov6yCr/GAXSiHu3g3DeevDVazUOcbE0kj+Peu7l/hau71Znh8/Hhe7vkcZhfjxwn7v7eLlYd9+LcDUfrrHpPl0sMER/Fbyfm8uTcPGidf7CPXwEG9s4/f0mxhKez8N5HgvdcWU3dSw+wYoEtvPyNW17hieW68Hyf17Pdb2+OapqAAAAAElFTkSuQmCC;" vertex="1" parent="1">
          <mxGeometry x="309" y="328" width="50" height="50" as="geometry" />
        </mxCell>
        <mxCell id="ueokan3URpYZCmvQA0W_-48" value="" style="verticalLabelPosition=bottom;html=1;fillColor=#A153A0;strokeColor=#ffffff;verticalAlign=top;align=center;points=[[0,0.5,0],[0.125,0.25,0],[0.25,0,0],[0.5,0,0],[0.75,0,0],[0.875,0.25,0],[1,0.5,0],[0.875,0.75,0],[0.75,1,0],[0.5,1,0],[0.125,0.75,0]];pointerEvents=1;shape=mxgraph.cisco_safe.compositeIcon;bgIcon=mxgraph.cisco_safe.design.blank_device;resIcon=mxgraph.cisco_safe.design.distribution_switch;dashed=1;sketch=0;" vertex="1" parent="1">
          <mxGeometry x="52.5" y="330.5" width="50" height="45" as="geometry" />
        </mxCell>
      </root>
    </mxGraphModel>
  </diagram>
</mxfile>
